<svg xmlns="http://www.w3.org/2000/svg" width="245.884" height="70.267" viewBox="0 0 245.884 70.267">
  <g id="组_46038" data-name="组 46038" transform="translate(-642.237 -471.157)">
    <g id="组_34654" data-name="组 34654" transform="translate(33 -17.558)">
      <path id="路径_631" data-name="路径 631" d="M1273,520.966a459.418,459.418,0,0,0,52.142-1.773" transform="translate(-473.498 5.271)" fill="none" stroke="#000" stroke-linecap="round" stroke-miterlimit="10" stroke-width="2.2"/>
      <path id="路径_632" data-name="路径 632" d="M1371.066,507.267l14.5,3.631-8.538,7.738" transform="translate(-531.549 12.105)" fill="none" stroke="#000" stroke-linecap="round" stroke-linejoin="round" stroke-miterlimit="10" stroke-width="2.2"/>
    </g>
    <g id="组_35489" data-name="组 35489" transform="translate(248.13 133.46)">
      <path id="路径_8015" data-name="路径 8015" d="M654.492,433.5a26.491,26.491,0,0,1-1.035,5.347l-1.722,6.473" transform="translate(-198.647 -51.936)" fill="none" stroke="#000" stroke-linecap="round" stroke-linejoin="round" stroke-miterlimit="10" stroke-width="2"/>
      <path id="路径_8016" data-name="路径 8016" d="M656.975,442.016a50.346,50.346,0,0,0,5-1.547" transform="translate(-201.526 -55.763)" fill="none" stroke="#000" stroke-linecap="round" stroke-miterlimit="10" stroke-width="2"/>
      <path id="路径_8017" data-name="路径 8017" d="M654.553,452.168a17.467,17.467,0,0,0,4.107-2.04" transform="translate(-200.195 -61.071)" fill="none" stroke="#000" stroke-linecap="round" stroke-miterlimit="10" stroke-width="2"/>
      <path id="路径_8018" data-name="路径 8018" d="M654.495,463.11a2.245,2.245,0,0,0,1.354-.367q2.143-1.122,4.187-2.422" transform="translate(-200.164 -66.672)" fill="none" stroke="#000" stroke-linecap="round" stroke-linejoin="round" stroke-miterlimit="10" stroke-width="2"/>
      <path id="路径_8019" data-name="路径 8019" d="M660.432,454a123.077,123.077,0,0,0,1.058,12.7c.013.1.045.225.145.251s.187-.064.249-.144l2.075-2.667" transform="translate(-203.426 -63.196)" fill="none" stroke="#000" stroke-linecap="round" stroke-linejoin="round" stroke-miterlimit="10" stroke-width="2"/>
      <path id="路径_8020" data-name="路径 8020" d="M685.24,429.033a34.787,34.787,0,0,0,4.4,1.009" transform="translate(-217.057 -49.48)" fill="none" stroke="#000" stroke-linecap="round" stroke-miterlimit="10" stroke-width="2"/>
      <path id="路径_8021" data-name="路径 8021" d="M676.991,437.836a48.756,48.756,0,0,0,11.4-2.946" transform="translate(-212.525 -52.698)" fill="none" stroke="#000" stroke-linecap="round" stroke-miterlimit="10" stroke-width="2"/>
      <path id="路径_8022" data-name="路径 8022" d="M674.815,442.243a35.078,35.078,0,0,1-2.024,20.4" transform="translate(-210.217 -56.738)" fill="none" stroke="#000" stroke-linecap="round" stroke-miterlimit="10" stroke-width="2"/>
      <path id="路径_8023" data-name="路径 8023" d="M683.019,447.6a33.157,33.157,0,0,0,8.672-3.067" transform="translate(-215.837 -57.997)" fill="none" stroke="#000" stroke-linecap="round" stroke-miterlimit="10" stroke-width="2"/>
      <path id="路径_8024" data-name="路径 8024" d="M687.572,445.241l.6,6.218a.245.245,0,0,0,.392.247l3.263-1.281" transform="translate(-218.339 -58.386)" fill="none" stroke="#000" stroke-linecap="round" stroke-linejoin="round" stroke-miterlimit="10" stroke-width="2"/>
      <path id="路径_8025" data-name="路径 8025" d="M697.462,442.751l-.078,6.194" transform="translate(-223.73 -57.017)" fill="none" stroke="#000" stroke-linecap="round" stroke-miterlimit="10" stroke-width="2"/>
      <path id="路径_8026" data-name="路径 8026" d="M683.865,467.017q3.467-.8,6.984-1.36a41.031,41.031,0,0,1-3.457,6.266,10.776,10.776,0,0,1-4.654,4.349" transform="translate(-215.682 -69.604)" fill="none" stroke="#000" stroke-linecap="round" stroke-linejoin="round" stroke-miterlimit="10" stroke-width="2"/>
      <path id="路径_8027" data-name="路径 8027" d="M685.84,473.768c2.8,2.207,5.724,4.472,9.193,5.308" transform="translate(-217.387 -74.06)" fill="none" stroke="#000" stroke-linecap="round" stroke-miterlimit="10" stroke-width="2"/>
      <path id="路径_8028" data-name="路径 8028" d="M730.5,431.471c3.093-.217,6.141-1.754,9.173-1.1a.716.716,0,0,1,.443.22.76.76,0,0,1,.075.552l-.425,3.594" transform="translate(-241.927 -50.125)" fill="none" stroke="#000" stroke-linecap="round" stroke-linejoin="round" stroke-miterlimit="10" stroke-width="2"/>
      <path id="路径_8029" data-name="路径 8029" d="M731.722,445.258a58.01,58.01,0,0,0,8.586-3.193" transform="translate(-242.598 -56.64)" fill="none" stroke="#000" stroke-linecap="round" stroke-miterlimit="10" stroke-width="2"/>
      <path id="路径_8030" data-name="路径 8030" d="M726.816,435a50.5,50.5,0,0,1-2.987,21.75" transform="translate(-238.261 -52.76)" fill="none" stroke="#000" stroke-linecap="round" stroke-miterlimit="10" stroke-width="2"/>
      <path id="路径_8031" data-name="路径 8031" d="M735.274,455.7l7.646-1.967" transform="translate(-244.55 -63.05)" fill="none" stroke="#000" stroke-linecap="round" stroke-miterlimit="10" stroke-width="2"/>
      <path id="路径_8032" data-name="路径 8032" d="M733.249,464.761c3.827.38,7.471-1.461,11.142-2.606" transform="translate(-243.437 -67.679)" fill="none" stroke="#000" stroke-linecap="round" stroke-miterlimit="10" stroke-width="2"/>
      <path id="路径_8033" data-name="路径 8033" d="M743.21,467.48l-2.611,7.005a.257.257,0,0,0-.024.142c.025.116.18.138.3.133a36.952,36.952,0,0,0,7.766-1.447" transform="translate(-247.461 -70.605)" fill="none" stroke="#000" stroke-linecap="round" stroke-linejoin="round" stroke-miterlimit="10" stroke-width="2"/>
      <path id="路径_8034" data-name="路径 8034" d="M758.136,476.157l.865,1.472a5.443,5.443,0,0,0,2.459,2.6" transform="translate(-257.112 -75.373)" fill="none" stroke="#000" stroke-linecap="round" stroke-linejoin="round" stroke-miterlimit="10" stroke-width="2"/>
      <path id="路径_8035" data-name="路径 8035" d="M774.226,430.819l-2.4,5.152a23.244,23.244,0,0,0,6.474-3.723" transform="translate(-264.635 -50.461)" fill="none" stroke="#000" stroke-linecap="round" stroke-linejoin="round" stroke-miterlimit="10" stroke-width="2"/>
      <path id="路径_8036" data-name="路径 8036" d="M781.248,439.7c.4.07.629.466.844.8a6.32,6.32,0,0,0,1.876,1.894" transform="translate(-269.811 -55.34)" fill="none" stroke="#000" stroke-linecap="round" stroke-linejoin="round" stroke-miterlimit="10" stroke-width="2"/>
      <path id="路径_8037" data-name="路径 8037" d="M796.915,431.092l-1.464,3.779a.171.171,0,0,0-.011.141c.033.061.121.057.189.044a17.487,17.487,0,0,0,6.951-2.959" transform="translate(-277.603 -50.611)" fill="none" stroke="#000" stroke-linecap="round" stroke-linejoin="round" stroke-miterlimit="10" stroke-width="2"/>
      <path id="路径_8038" data-name="路径 8038" d="M803.756,437.495a12.539,12.539,0,0,0,2.929,2.588" transform="translate(-282.179 -54.129)" fill="none" stroke="#000" stroke-linecap="round" stroke-miterlimit="10" stroke-width="2"/>
      <path id="路径_8039" data-name="路径 8039" d="M791.332,448.549a16.89,16.89,0,0,1-7.338,2.657" transform="translate(-271.32 -60.203)" fill="none" stroke="#000" stroke-linecap="round" stroke-miterlimit="10" stroke-width="2"/>
      <path id="路径_8040" data-name="路径 8040" d="M780.53,463.557q4.314-.681,8.553-1.751" transform="translate(-269.417 -67.488)" fill="none" stroke="#000" stroke-linecap="round" stroke-miterlimit="10" stroke-width="2"/>
      <path id="路径_8041" data-name="路径 8041" d="M775.986,473.276a62.781,62.781,0,0,0,15.911-4.4" transform="translate(-266.92 -71.37)" fill="none" stroke="#000" stroke-linecap="round" stroke-miterlimit="10" stroke-width="2"/>
      <path id="路径_8042" data-name="路径 8042" d="M789.354,455a74.676,74.676,0,0,0,.169,10.933,4.788,4.788,0,0,0,.437,1.877,4.308,4.308,0,0,0,2.8,1.8,15.42,15.42,0,0,0,7.3.193,1.84,1.84,0,0,0,1.186-.617,1.948,1.948,0,0,0,.219-1.155l-.069-3.8" transform="translate(-274.197 -63.748)" fill="none" stroke="#000" stroke-linecap="round" stroke-linejoin="round" stroke-miterlimit="10" stroke-width="2"/>
      <path id="路径_8043" data-name="路径 8043" d="M833.04,437.54a116.321,116.321,0,0,0,18.867-4.3" transform="translate(-298.27 -51.791)" fill="none" stroke="#000" stroke-linecap="round" stroke-miterlimit="10" stroke-width="2"/>
      <path id="路径_8044" data-name="路径 8044" d="M844.76,433.5a22.6,22.6,0,0,1,.783,6.872" transform="translate(-304.709 -51.933)" fill="none" stroke="#000" stroke-linecap="round" stroke-miterlimit="10" stroke-width="2"/>
      <path id="路径_8045" data-name="路径 8045" d="M861.522,430.5a41.821,41.821,0,0,1,.553,8.449" transform="translate(-313.92 -50.284)" fill="none" stroke="#000" stroke-linecap="round" stroke-miterlimit="10" stroke-width="2"/>
      <path id="路径_8046" data-name="路径 8046" d="M833.915,464.985A44.559,44.559,0,0,0,836.025,475" transform="translate(-298.75 -69.234)" fill="none" stroke="#000" stroke-linecap="round" stroke-miterlimit="10" stroke-width="2"/>
      <path id="路径_8047" data-name="路径 8047" d="M848.771,466.279a12.983,12.983,0,0,0,3.838,6.627,6.921,6.921,0,0,0,3.917,1.986,3.643,3.643,0,0,0,3.694-1.957,3.8,3.8,0,0,0-.565-3.558,9.621,9.621,0,0,0-2.826-2.444,54.592,54.592,0,0,1,7.723-2.478" transform="translate(-306.913 -68.944)" fill="none" stroke="#000" stroke-linecap="round" stroke-linejoin="round" stroke-miterlimit="10" stroke-width="2"/>
      <path id="路径_8048" data-name="路径 8048" d="M405.783,338.984a15.771,15.771,0,0,1-3.21,4.7q-3.488,3.957-7.052,7.845" transform="translate(0)" fill="none" stroke="#000" stroke-linecap="round" stroke-linejoin="round" stroke-miterlimit="10" stroke-width="2"/>
      <path id="路径_8049" data-name="路径 8049" d="M417.118,343.865a32.755,32.755,0,0,0,10.756,6.228" transform="translate(-11.868 -2.682)" fill="none" stroke="#000" stroke-linecap="round" stroke-miterlimit="10" stroke-width="2"/>
      <path id="路径_8050" data-name="路径 8050" d="M407.686,362.063l8.856-1.672" transform="translate(-6.685 -11.763)" fill="none" stroke="#000" stroke-linecap="round" stroke-miterlimit="10" stroke-width="2"/>
      <path id="路径_8051" data-name="路径 8051" d="M406.347,377.877q6.5-1.431,13.054-2.611" transform="translate(-5.949 -19.936)" fill="none" stroke="#000" stroke-linecap="round" stroke-miterlimit="10" stroke-width="2"/>
      <path id="路径_8052" data-name="路径 8052" d="M417.6,366.016a27.649,27.649,0,0,1,.146,12.3" transform="translate(-12.133 -14.853)" fill="none" stroke="#000" stroke-linecap="round" stroke-miterlimit="10" stroke-width="2"/>
      <path id="路径_8053" data-name="路径 8053" d="M397,395.028a87.277,87.277,0,0,0,23.267-2.785" transform="translate(-0.813 -29.264)" fill="none" stroke="#000" stroke-linecap="round" stroke-miterlimit="10" stroke-width="2"/>
      <path id="路径_8054" data-name="路径 8054" d="M463.661,339.022l3.76.879" transform="translate(-37.442 -0.021)" fill="none" stroke="#000" stroke-linecap="round" stroke-miterlimit="10" stroke-width="2"/>
      <path id="路径_8055" data-name="路径 8055" d="M458.984,347.907q4.876-1.292,9.778-2.488" transform="translate(-34.872 -3.536)" fill="none" stroke="#000" stroke-linecap="round" stroke-miterlimit="10" stroke-width="2"/>
      <path id="路径_8056" data-name="路径 8056" d="M466.313,352.668a6.71,6.71,0,0,0,.747,2.709" transform="translate(-38.899 -7.519)" fill="none" stroke="#000" stroke-linecap="round" stroke-miterlimit="10" stroke-width="2"/>
      <path id="路径_8057" data-name="路径 8057" d="M473.4,350a8.216,8.216,0,0,1-1.015,3.917" transform="translate(-42.235 -6.053)" fill="none" stroke="#000" stroke-linecap="round" stroke-miterlimit="10" stroke-width="2"/>
      <path id="路径_8058" data-name="路径 8058" d="M459.015,363.768a48.523,48.523,0,0,0,8.729-2.976" transform="translate(-34.889 -11.983)" fill="none" stroke="#000" stroke-linecap="round" stroke-miterlimit="10" stroke-width="2"/>
      <path id="路径_8059" data-name="路径 8059" d="M459.959,371.452a22.606,22.606,0,0,0,9.791-3.748" transform="translate(-35.408 -15.781)" fill="none" stroke="#000" stroke-linecap="round" stroke-miterlimit="10" stroke-width="2"/>
      <path id="路径_8060" data-name="路径 8060" d="M469.139,365.676a124.457,124.457,0,0,1,.009,14.072l-2.5-1.288" transform="translate(-39.085 -14.667)" fill="none" stroke="#000" stroke-linecap="round" stroke-linejoin="round" stroke-miterlimit="10" stroke-width="2"/>
      <path id="路径_8061" data-name="路径 8061" d="M463.357,379.684a10.47,10.47,0,0,1-3.038,4.941" transform="translate(-35.605 -22.364)" fill="none" stroke="#000" stroke-linecap="round" stroke-miterlimit="10" stroke-width="2"/>
      <path id="路径_8062" data-name="路径 8062" d="M473.656,378.356q1.629.8,3.18,1.756" transform="translate(-42.934 -21.634)" fill="none" stroke="#000" stroke-linecap="round" stroke-miterlimit="10" stroke-width="2"/>
      <path id="路径_8063" data-name="路径 8063" d="M495.982,339.719a12,12,0,0,1-6.637,4.658,37.277,37.277,0,0,1-.548,13.954" transform="translate(-51.253 -0.404)" fill="none" stroke="#000" stroke-linecap="round" stroke-linejoin="round" stroke-miterlimit="10" stroke-width="2"/>
      <path id="路径_8064" data-name="路径 8064" d="M492.66,357.55a21.492,21.492,0,0,0,7.837-2.792" transform="translate(-53.376 -8.667)" fill="none" stroke="#000" stroke-linecap="round" stroke-miterlimit="10" stroke-width="2"/>
      <path id="路径_8065" data-name="路径 8065" d="M502.812,360.995c.419,5.606.821,11.373-.87,16.734" transform="translate(-58.476 -12.094)" fill="none" stroke="#000" stroke-linecap="round" stroke-miterlimit="10" stroke-width="2"/>
      <path id="路径_8066" data-name="路径 8066" d="M526.013,349.634l4.191,1.687" transform="translate(-71.703 -5.852)" fill="none" stroke="#000" stroke-linecap="round" stroke-miterlimit="10" stroke-width="2"/>
      <path id="路径_8067" data-name="路径 8067" d="M528.448,365.992a9.469,9.469,0,0,1-.189,10.492" transform="translate(-72.937 -14.84)" fill="none" stroke="#000" stroke-linecap="round" stroke-miterlimit="10" stroke-width="2"/>
      <path id="路径_8068" data-name="路径 8068" d="M525.247,388.522a49.848,49.848,0,0,0,26.173,4.151" transform="translate(-71.282 -27.22)" fill="none" stroke="#000" stroke-linecap="round" stroke-miterlimit="10" stroke-width="2"/>
      <path id="路径_8069" data-name="路径 8069" d="M552.651,339.779l4.206.6" transform="translate(-86.34 -0.437)" fill="none" stroke="#000" stroke-linecap="round" stroke-miterlimit="10" stroke-width="2"/>
      <path id="路径_8070" data-name="路径 8070" d="M543.012,350.282a125.246,125.246,0,0,0,13.217-3.908" transform="translate(-81.043 -4.061)" fill="none" stroke="#000" stroke-linecap="round" stroke-miterlimit="10" stroke-width="2"/>
      <path id="路径_8071" data-name="路径 8071" d="M559.213,345.334q.111,3.905-.072,7.812" transform="translate(-89.906 -3.489)" fill="none" stroke="#000" stroke-linecap="round" stroke-miterlimit="10" stroke-width="2"/>
      <path id="路径_8072" data-name="路径 8072" d="M546.6,354.97a12.651,12.651,0,0,1-6.293,5.99" transform="translate(-79.555 -8.784)" fill="none" stroke="#000" stroke-linecap="round" stroke-miterlimit="10" stroke-width="2"/>
      <path id="路径_8073" data-name="路径 8073" d="M560.96,354.063a19.449,19.449,0,0,0,5.423,2.381" transform="translate(-90.905 -8.286)" fill="none" stroke="#000" stroke-linecap="round" stroke-miterlimit="10" stroke-width="2"/>
      <path id="路径_8074" data-name="路径 8074" d="M546.675,369.114q4.7-1.063,9.466-1.849a7.248,7.248,0,0,1-2.415,4.174,18.869,18.869,0,0,1,3.784.323,1.661,1.661,0,0,1,1.1.536,1.6,1.6,0,0,1,.223.826,10.475,10.475,0,0,1-.387,3.614,1.214,1.214,0,0,1-.406.7,1.3,1.3,0,0,1-1.083.013l-2.614-.751" transform="translate(-83.056 -15.54)" fill="none" stroke="#000" stroke-linecap="round" stroke-linejoin="round" stroke-miterlimit="10" stroke-width="2"/>
      <path id="路径_8075" data-name="路径 8075" d="M549.4,374.024a14.716,14.716,0,0,1-4.179,8.2" transform="translate(-82.255 -19.254)" fill="none" stroke="#000" stroke-linecap="round" stroke-miterlimit="10" stroke-width="2"/>
      <path id="路径_8076" data-name="路径 8076" d="M590.337,351.333q.869,6.278,1.222,12.614" transform="translate(-107.047 -6.785)" fill="none" stroke="#000" stroke-linecap="round" stroke-miterlimit="10" stroke-width="2"/>
      <path id="路径_8077" data-name="路径 8077" d="M590.93,350.827a14.529,14.529,0,0,1,6.133-2.5.826.826,0,0,1,.511.032.836.836,0,0,1,.339.568,36.722,36.722,0,0,1,.676,10.5" transform="translate(-107.373 -5.123)" fill="none" stroke="#000" stroke-linecap="round" stroke-linejoin="round" stroke-miterlimit="10" stroke-width="2"/>
      <path id="路径_8078" data-name="路径 8078" d="M594.264,365.842l5.447-2.463" transform="translate(-109.205 -13.404)" fill="none" stroke="#000" stroke-linecap="round" stroke-miterlimit="10" stroke-width="2"/>
      <path id="路径_8079" data-name="路径 8079" d="M593.7,377.193a28.291,28.291,0,0,0,6.319-2.412" transform="translate(-108.895 -19.67)" fill="none" stroke="#000" stroke-linecap="round" stroke-miterlimit="10" stroke-width="2"/>
      <path id="路径_8080" data-name="路径 8080" d="M614.732,344a97.988,97.988,0,0,1-1.926,23.592" transform="translate(-119.393 -2.755)" fill="none" stroke="#000" stroke-linecap="round" stroke-miterlimit="10" stroke-width="2"/>
      <path id="路径_8081" data-name="路径 8081" d="M618.306,343.526l7.448-1.653a151.355,151.355,0,0,1,1,22.887c-.019.6-.147,1.354-.726,1.53-1,.3-1.557-1.479-2.6-1.465" transform="translate(-122.415 -1.587)" fill="none" stroke="#000" stroke-linecap="round" stroke-linejoin="round" stroke-miterlimit="10" stroke-width="2"/>
      <path id="路径_8082" data-name="路径 8082" d="M617.632,360.349c2.023-.187,4.27-.489,5.556-2.061" transform="translate(-122.045 -10.607)" fill="none" stroke="#000" stroke-linecap="round" stroke-miterlimit="10" stroke-width="2"/>
      <path id="路径_8083" data-name="路径 8083" d="M617.011,375.606a32.26,32.26,0,0,0,6.321-1.485" transform="translate(-121.704 -19.307)" fill="none" stroke="#000" stroke-linecap="round" stroke-miterlimit="10" stroke-width="2"/>
      <path id="路径_8084" data-name="路径 8084" d="M659.756,341.01a10.776,10.776,0,0,1-1.649,4.233,27.01,27.01,0,0,0,7.543-3.36" transform="translate(-144.285 -1.113)" fill="none" stroke="#000" stroke-linecap="round" stroke-linejoin="round" stroke-miterlimit="10" stroke-width="2"/>
      <path id="路径_8085" data-name="路径 8085" d="M666.359,349.312l2.529,3.023" transform="translate(-148.819 -5.675)" fill="none" stroke="#000" stroke-linecap="round" stroke-miterlimit="10" stroke-width="2"/>
      <path id="路径_8086" data-name="路径 8086" d="M684.19,340.368a10.855,10.855,0,0,1-1.341,3.281,22.848,22.848,0,0,0,6.781-3.064" transform="translate(-157.88 -0.761)" fill="none" stroke="#000" stroke-linecap="round" stroke-linejoin="round" stroke-miterlimit="10" stroke-width="2"/>
      <path id="路径_8087" data-name="路径 8087" d="M689.729,347.637a10.222,10.222,0,0,0,1.907,2.733" transform="translate(-161.66 -4.755)" fill="none" stroke="#000" stroke-linecap="round" stroke-miterlimit="10" stroke-width="2"/>
      <path id="路径_8088" data-name="路径 8088" d="M665.652,361.262c3.051.031,6.305,0,8.856-1.67" transform="translate(-148.431 -11.324)" fill="none" stroke="#000" stroke-linecap="round" stroke-miterlimit="10" stroke-width="2"/>
      <path id="路径_8089" data-name="路径 8089" d="M665.67,373.279a24.759,24.759,0,0,0,8.876-2.538" transform="translate(-148.441 -17.45)" fill="none" stroke="#000" stroke-linecap="round" stroke-miterlimit="10" stroke-width="2"/>
      <path id="路径_8090" data-name="路径 8090" d="M657.711,382.565a52.861,52.861,0,0,0,17.935-6.581" transform="translate(-144.067 -20.331)" fill="none" stroke="#000" stroke-linecap="round" stroke-miterlimit="10" stroke-width="2"/>
      <path id="路径_8091" data-name="路径 8091" d="M675.253,366q-.144,4.7-.134,9.412a5.261,5.261,0,0,0,.75,3.292,4.649,4.649,0,0,0,3.6,1.366,17.7,17.7,0,0,0,7.175-1.247.882.882,0,0,0,.387-.243.909.909,0,0,0,.118-.606l-.107-2.66" transform="translate(-153.632 -14.845)" fill="none" stroke="#000" stroke-linecap="round" stroke-linejoin="round" stroke-miterlimit="10" stroke-width="2"/>
      <path id="路径_8092" data-name="路径 8092" d="M740.079,338.989a36.54,36.54,0,0,1-1.212,11.252" transform="translate(-188.661 -0.003)" fill="none" stroke="#000" stroke-linecap="round" stroke-miterlimit="10" stroke-width="2"/>
      <path id="路径_8093" data-name="路径 8093" d="M727.743,351.667a10.96,10.96,0,0,1-1.3,4.681" transform="translate(-181.832 -6.969)" fill="none" stroke="#000" stroke-linecap="round" stroke-miterlimit="10" stroke-width="2"/>
      <path id="路径_8094" data-name="路径 8094" d="M750.627,347.711a12.534,12.534,0,0,0,3.474,2.229" transform="translate(-195.122 -4.795)" fill="none" stroke="#000" stroke-linecap="round" stroke-miterlimit="10" stroke-width="2"/>
      <path id="路径_8095" data-name="路径 8095" d="M721.021,376.394a114.391,114.391,0,0,0,18.622-3.656" transform="translate(-178.855 -18.547)" fill="none" stroke="#000" stroke-linecap="round" stroke-miterlimit="10" stroke-width="2"/>
      <path id="路径_8096" data-name="路径 8096" d="M732.639,369.672a18.379,18.379,0,0,1-6.91,12.8" transform="translate(-181.442 -16.862)" fill="none" stroke="#000" stroke-linecap="round" stroke-miterlimit="10" stroke-width="2"/>
      <path id="路径_8097" data-name="路径 8097" d="M744.033,381.905a11.787,11.787,0,0,1,2.462,1.78c2.216,1.728,5.025,2.461,7.748,3.152" transform="translate(-191.499 -23.584)" fill="none" stroke="#000" stroke-linecap="round" stroke-linejoin="round" stroke-miterlimit="10" stroke-width="2"/>
      <g id="组_42011" data-name="组 42011" transform="translate(-119.284 -71.754)">
        <path id="路径_11808" data-name="路径 11808" d="M520.326,458a42.054,42.054,0,0,1-4.449,12.1" transform="translate(0 -5.63)" fill="none" stroke="#000" stroke-linecap="round" stroke-miterlimit="10" stroke-width="2"/>
        <path id="路径_11809" data-name="路径 11809" d="M543.965,481.651a16.787,16.787,0,0,0,4.376-2.091" transform="translate(-24.256 -24.251)" fill="none" stroke="#000" stroke-linecap="round" stroke-miterlimit="10" stroke-width="2"/>
        <path id="路径_11810" data-name="路径 11810" d="M531.009,520.4a17.287,17.287,0,0,0,5.538-2.234" transform="translate(-13.068 -57.587)" fill="none" stroke="#000" stroke-linecap="round" stroke-miterlimit="10" stroke-width="2"/>
        <path id="路径_11811" data-name="路径 11811" d="M533.426,557.318a14.525,14.525,0,0,0,6.422-2.636" transform="translate(-15.155 -89.124)" fill="none" stroke="#000" stroke-linecap="round" stroke-miterlimit="10" stroke-width="2"/>
        <path id="路径_11812" data-name="路径 11812" d="M558.619,532.5l.116,13.805a6.559,6.559,0,0,0,3.131-5.146" transform="translate(-36.911 -69.964)" fill="none" stroke="#000" stroke-linecap="round" stroke-linejoin="round" stroke-miterlimit="10" stroke-width="2"/>
        <path id="路径_11813" data-name="路径 11813" d="M613.568,462.419l-4.726,3.487a1.7,1.7,0,0,0-.909,1.759q-.02,8.534-.041,17.069" transform="translate(-79.462 -9.448)" fill="none" stroke="#000" stroke-linecap="round" stroke-linejoin="round" stroke-miterlimit="10" stroke-width="2"/>
        <path id="路径_11814" data-name="路径 11814" d="M612.507,500a34.343,34.343,0,0,1,7.089-1.617,2.167,2.167,0,0,1,1.679.276,2.243,2.243,0,0,1,.508,1.807q-.135,7.235-.27,14.469" transform="translate(-83.447 -40.47)" fill="none" stroke="#000" stroke-linecap="round" stroke-linejoin="round" stroke-miterlimit="10" stroke-width="2"/>
        <path id="路径_11815" data-name="路径 11815" d="M614.045,556.994l7.554-1.847" transform="translate(-84.775 -89.525)" fill="none" stroke="#000" stroke-linecap="round" stroke-miterlimit="10" stroke-width="2"/>
        <path id="路径_11816" data-name="路径 11816" d="M611.061,613.893a75.929,75.929,0,0,1,8.308-2.571" transform="translate(-82.198 -138.036)" fill="none" stroke="#000" stroke-linecap="round" stroke-miterlimit="10" stroke-width="2"/>
        <path id="路径_11817" data-name="路径 11817" d="M736.945,451.478a51.622,51.622,0,0,1-10.271,14.012" transform="translate(-182.038 0)" fill="none" stroke="#000" stroke-linecap="round" stroke-miterlimit="10" stroke-width="2"/>
        <path id="路径_11818" data-name="路径 11818" d="M802.138,465.769a95.473,95.473,0,0,0,11.631,5.935" transform="translate(-247.206 -12.341)" fill="none" stroke="#000" stroke-linecap="round" stroke-miterlimit="10" stroke-width="2"/>
        <path id="路径_11819" data-name="路径 11819" d="M762.005,511.057a62.8,62.8,0,0,0,10.258-3.076" transform="translate(-212.548 -48.794)" fill="none" stroke="#000" stroke-linecap="round" stroke-miterlimit="10" stroke-width="2"/>
        <path id="路径_11820" data-name="路径 11820" d="M766.958,547.158a42.979,42.979,0,0,0,10.059-2.693" transform="translate(-216.826 -80.301)" fill="none" stroke="#000" stroke-linecap="round" stroke-miterlimit="10" stroke-width="2"/>
        <path id="路径_11821" data-name="路径 11821" d="M799.463,523a66.846,66.846,0,0,1,.009,13.711" transform="translate(-244.896 -61.768)" fill="none" stroke="#000" stroke-linecap="round" stroke-miterlimit="10" stroke-width="2"/>
        <path id="路径_11822" data-name="路径 11822" d="M758.606,586.466a10.128,10.128,0,0,0,2.011,3.57" transform="translate(-209.613 -116.571)" fill="none" stroke="#000" stroke-linecap="round" stroke-miterlimit="10" stroke-width="2"/>
        <path id="路径_11823" data-name="路径 11823" d="M824.051,578.984a8.324,8.324,0,0,1-2.957,5.748" transform="translate(-263.575 -110.11)" fill="none" stroke="#000" stroke-linecap="round" stroke-miterlimit="10" stroke-width="2"/>
        <path id="路径_11824" data-name="路径 11824" d="M729.235,628.23a76.3,76.3,0,0,1,21.526-2.091" transform="translate(-184.249 -150.764)" fill="none" stroke="#000" stroke-linecap="round" stroke-miterlimit="10" stroke-width="2"/>
      </g>
    </g>
  </g>
</svg>
