<svg xmlns="http://www.w3.org/2000/svg" width="508.709" height="63.31" viewBox="0 0 508.709 63.31">
  <g id="组_46511" data-name="组 46511" transform="translate(-1359 -68.703)">
    <g id="组_35496" data-name="组 35496" transform="translate(628.194 -320.111)">
      <g id="组_35476" data-name="组 35476" transform="translate(516.844 -235.266)">
        <path id="路径_861" data-name="路径 861" d="M634.95,635.634c17.181,0,34.151,6.207,46.4,17.883,8.365,7.975,13.289,19.112,15.717,30.5" fill="none" stroke="#000" stroke-linecap="round" stroke-linejoin="round" stroke-miterlimit="10" stroke-width="2.5"/>
        <path id="路径_862" data-name="路径 862" d="M738.709,712.55a22.31,22.31,0,0,1,7.138,5.9l2.917-13.318" transform="translate(-48.238 -32.31)" fill="none" stroke="#000" stroke-linecap="round" stroke-linejoin="round" stroke-miterlimit="10" stroke-width="2.5"/>
      </g>
      <g id="组_35495" data-name="组 35495" transform="translate(-1573.659 -449.645)">
        <path id="路径_8320" data-name="路径 8320" d="M2294.73,841.073a22.54,22.54,0,0,0,6.457.643" transform="translate(50.368 -0.594)" fill="none" stroke="#000" stroke-linecap="round" stroke-miterlimit="10" stroke-width="2.2"/>
        <path id="路径_8321" data-name="路径 8321" d="M2282.32,849.02q11.052-2.91,22.036-6.073" transform="translate(55.97 -1.44)" fill="none" stroke="#000" stroke-linecap="round" stroke-miterlimit="10" stroke-width="2.2"/>
        <path id="路径_8322" data-name="路径 8322" d="M2293.94,858.29a32.372,32.372,0,0,1,2.689,4.894" transform="translate(50.725 -8.365)" fill="none" stroke="#000" stroke-linecap="round" stroke-miterlimit="10" stroke-width="2.2"/>
        <path id="路径_8323" data-name="路径 8323" d="M2296.25,858.329q3.846-1.473,7.806-2.626a.488.488,0,0,1,.4,0,.5.5,0,0,1,.149.431l.019,2.794a1.064,1.064,0,0,1-.069.469,1.039,1.039,0,0,1-.49.414,24.823,24.823,0,0,1-6.156,2.275" transform="translate(49.681 -7.178)" fill="none" stroke="#000" stroke-linecap="round" stroke-linejoin="round" stroke-miterlimit="10" stroke-width="2.2"/>
        <path id="路径_8324" data-name="路径 8324" d="M2283.4,876.257l.956,12.757" transform="translate(55.482 -16.475)" fill="none" stroke="#000" stroke-linecap="round" stroke-miterlimit="10" stroke-width="2.2"/>
        <path id="路径_8325" data-name="路径 8325" d="M2290.58,873.989a38.495,38.495,0,0,1,17.929-4.738,1.181,1.181,0,0,1,.721.148,1.2,1.2,0,0,1,.363.857,91.044,91.044,0,0,1,.7,14.981,19.006,19.006,0,0,1-5.479-.815" transform="translate(52.241 -13.312)" fill="none" stroke="#000" stroke-linecap="round" stroke-linejoin="round" stroke-miterlimit="10" stroke-width="2.2"/>
        <path id="路径_8326" data-name="路径 8326" d="M2297.83,886.467l1.985,4.83" transform="translate(48.969 -21.083)" fill="none" stroke="#000" stroke-linecap="round" stroke-miterlimit="10" stroke-width="2.2"/>
        <path id="路径_8327" data-name="路径 8327" d="M2298.2,884.419a18.924,18.924,0,0,1,6.478-1.762,2.666,2.666,0,0,1,1.558.2c.824.469.967,1.576,1.016,2.524a.886.886,0,0,1-.514,1.051q-2.446,1.469-4.9,2.929" transform="translate(48.805 -19.351)" fill="none" stroke="#000" stroke-linecap="round" stroke-linejoin="round" stroke-miterlimit="10" stroke-width="2.2"/>
        <path id="路径_8328" data-name="路径 8328" d="M2341.6,849.521a26.473,26.473,0,0,1-2.834,7.081c.364.651,1.328.5,2.034.265l3.38-1.139c-1.057,3.789-3.349,7.1-5.6,10.321a1.8,1.8,0,0,0,1.643.034,27.444,27.444,0,0,0,5.183-2.287" transform="translate(30.577 -4.408)" fill="none" stroke="#000" stroke-linecap="round" stroke-linejoin="round" stroke-miterlimit="10" stroke-width="2.2"/>
        <path id="路径_8329" data-name="路径 8329" d="M2338.25,889.729c3.3-.422,6.121-2.505,8.773-4.518" transform="translate(30.726 -20.516)" fill="none" stroke="#000" stroke-linecap="round" stroke-miterlimit="10" stroke-width="2.2"/>
        <path id="路径_8330" data-name="路径 8330" d="M2361.24,850.009a49.665,49.665,0,0,1-4.708,24.622" transform="translate(22.472 -4.628)" fill="none" stroke="#000" stroke-linecap="round" stroke-miterlimit="10" stroke-width="2.2"/>
        <path id="路径_8331" data-name="路径 8331" d="M2365.51,847.075a62.141,62.141,0,0,0,8.823-1.794l-4.87,9.3c-.132.251-.242.61-.012.776a.608.608,0,0,0,.465.039l7.545-1.4a78.169,78.169,0,0,1-5.254,11.959c-1.288,2.372-2.978,4.887-5.61,5.481" transform="translate(18.423 -2.494)" fill="none" stroke="#000" stroke-linecap="round" stroke-linejoin="round" stroke-miterlimit="10" stroke-width="2.2"/>
        <path id="路径_8332" data-name="路径 8332" d="M2371,874.842a23.927,23.927,0,0,0,14.535,10.516" transform="translate(15.942 -15.836)" fill="none" stroke="#000" stroke-linecap="round" stroke-miterlimit="10" stroke-width="2.2"/>
        <path id="路径_8333" data-name="路径 8333" d="M2406.09,844a28.332,28.332,0,0,1-3.326,13.447" transform="translate(1.606 -1.916)" fill="none" stroke="#000" stroke-linecap="round" stroke-miterlimit="10" stroke-width="2.2"/>
        <path id="路径_8334" data-name="路径 8334" d="M2408.28,852.162a22.12,22.12,0,0,0,5.492-2.35" transform="translate(-0.881 -4.539)" fill="none" stroke="#000" stroke-linecap="round" stroke-miterlimit="10" stroke-width="2.2"/>
        <path id="路径_8335" data-name="路径 8335" d="M2409,864.427a19.6,19.6,0,0,0,4.809-1.9" transform="translate(-1.207 -10.277)" fill="none" stroke="#000" stroke-linecap="round" stroke-miterlimit="10" stroke-width="2.2"/>
        <path id="路径_8336" data-name="路径 8336" d="M2405.75,876.791a10.9,10.9,0,0,0,6.905-2.952" transform="translate(0.26 -15.383)" fill="none" stroke="#000" stroke-linecap="round" stroke-miterlimit="10" stroke-width="2.2"/>
        <path id="路径_8337" data-name="路径 8337" d="M2411.74,865.5q.035,8.919.392,17.832a13.143,13.143,0,0,0,3.98-6.276" transform="translate(-2.443 -11.62)" fill="none" stroke="#000" stroke-linecap="round" stroke-linejoin="round" stroke-miterlimit="10" stroke-width="2.2"/>
        <path id="路径_8338" data-name="路径 8338" d="M2431.46,845.275l4.869.2a.937.937,0,0,1,1.031,1.2,97.464,97.464,0,0,1-.371,10.268" transform="translate(-11.345 -2.491)" fill="none" stroke="#000" stroke-linecap="round" stroke-linejoin="round" stroke-miterlimit="10" stroke-width="2.2"/>
        <path id="路径_8339" data-name="路径 8339" d="M2430.26,857.818a35.194,35.194,0,0,0,6.041-3.289" transform="translate(-10.803 -6.668)" fill="none" stroke="#000" stroke-linecap="round" stroke-miterlimit="10" stroke-width="2.2"/>
        <path id="路径_8340" data-name="路径 8340" d="M2428.98,851.5l-.043,23.33,2.9-1.545" transform="translate(-10.205 -5.302)" fill="none" stroke="#000" stroke-linecap="round" stroke-linejoin="round" stroke-miterlimit="10" stroke-width="2.2"/>
        <path id="路径_8341" data-name="路径 8341" d="M2444.03,870.978a15.3,15.3,0,0,1-3.241,5.106" transform="translate(-15.554 -14.092)" fill="none" stroke="#000" stroke-linecap="round" stroke-miterlimit="10" stroke-width="2.2"/>
        <path id="路径_8342" data-name="路径 8342" d="M2436.28,876.739a21.376,21.376,0,0,0,3.941,6.283,12.412,12.412,0,0,0,5.78,3.187" transform="translate(-13.521 -16.692)" fill="none" stroke="#000" stroke-linecap="round" stroke-linejoin="round" stroke-miterlimit="10" stroke-width="2.2"/>
        <path id="路径_8343" data-name="路径 8343" d="M2429.55,869.32q2.994-1.809,6.136-3.355" transform="translate(-10.482 -11.83)" fill="none" stroke="#000" stroke-linecap="round" stroke-miterlimit="10" stroke-width="2.2"/>
        <path id="路径_8344" data-name="路径 8344" d="M2461.5,846.744a27.886,27.886,0,0,0,4.249.975" transform="translate(-24.904 -3.154)" fill="none" stroke="#000" stroke-linecap="round" stroke-miterlimit="10" stroke-width="2.2"/>
        <path id="路径_8345" data-name="路径 8345" d="M2460.44,862.352l4.8-4.059a6.563,6.563,0,0,0,1.439-1.507" transform="translate(-24.426 -7.687)" fill="none" stroke="#000" stroke-linecap="round" stroke-linejoin="round" stroke-miterlimit="10" stroke-width="2.2"/>
        <path id="路径_8346" data-name="路径 8346" d="M2471.2,843.256a82.028,82.028,0,0,1,.321,13.3" transform="translate(-29.28 -1.58)" fill="none" stroke="#000" stroke-linecap="round" stroke-miterlimit="10" stroke-width="2.2"/>
        <path id="路径_8347" data-name="路径 8347" d="M2484.89,840a14.139,14.139,0,0,1-1.958,6.557l7.142-2.551a25.915,25.915,0,0,1-3.394,7.535c-.84,1.272-2.054,2.594-3.574,2.484" transform="translate(-34.574 -0.11)" fill="none" stroke="#000" stroke-linecap="round" stroke-linejoin="round" stroke-miterlimit="10" stroke-width="2.2"/>
        <path id="路径_8348" data-name="路径 8348" d="M2484.47,854.575l3.725,1.453" transform="translate(-35.271 -6.689)" fill="none" stroke="#000" stroke-linecap="round" stroke-miterlimit="10" stroke-width="2.2"/>
        <path id="路径_8349" data-name="路径 8349" d="M2477.4,872.691a61.544,61.544,0,0,1,.763,15.958c-.011.125-.04.275-.157.319a.338.338,0,0,1-.251-.043,35.2,35.2,0,0,1-3.316-1.735" transform="translate(-30.741 -14.865)" fill="none" stroke="#000" stroke-linecap="round" stroke-linejoin="round" stroke-miterlimit="10" stroke-width="2.2"/>
        <path id="路径_8350" data-name="路径 8350" d="M2463.75,884.385q2.9.084,5.79-.117a16.212,16.212,0,0,1-5.66,7.523" transform="translate(-25.919 -20.091)" fill="none" stroke="#000" stroke-linecap="round" stroke-linejoin="round" stroke-miterlimit="10" stroke-width="2.2"/>
        <path id="路径_8351" data-name="路径 8351" d="M2490.99,875.048l-4.15,3.576a.363.363,0,0,0-.136.18.368.368,0,0,0,.093.274,33.942,33.942,0,0,0,9.393,9.243" transform="translate(-36.278 -15.929)" fill="none" stroke="#000" stroke-linecap="round" stroke-linejoin="round" stroke-miterlimit="10" stroke-width="2.2"/>
        <path id="路径_8352" data-name="路径 8352" d="M2512.52,857.5a47.015,47.015,0,0,1,1,7.544" transform="translate(-47.932 -8.007)" fill="none" stroke="#000" stroke-linecap="round" stroke-miterlimit="10" stroke-width="2.2"/>
        <path id="路径_8353" data-name="路径 8353" d="M2528.75,851.25a23.88,23.88,0,0,1-.954,6.865" transform="translate(-54.825 -5.188)" fill="none" stroke="#000" stroke-linecap="round" stroke-miterlimit="10" stroke-width="2.2"/>
        <path id="路径_8354" data-name="路径 8354" d="M2517.85,849.276a49.948,49.948,0,0,1-3.861,25.968" transform="translate(-48.596 -4.297)" fill="none" stroke="#000" stroke-linecap="round" stroke-miterlimit="10" stroke-width="2.2"/>
        <path id="路径_8355" data-name="路径 8355" d="M2522.9,873.65l2.657,4.034" transform="translate(-52.617 -15.298)" fill="none" stroke="#000" stroke-linecap="round" stroke-miterlimit="10" stroke-width="2.2"/>
        <path id="路径_8356" data-name="路径 8356" d="M2540.27,845.878a38.527,38.527,0,0,0,10.144-3.61" transform="translate(-60.456 -1.134)" fill="none" stroke="#000" stroke-linecap="round" stroke-miterlimit="10" stroke-width="2.2"/>
        <path id="路径_8357" data-name="路径 8357" d="M2547.47,841.005a32.29,32.29,0,0,1,.14,9.6" transform="translate(-63.707 -0.564)" fill="none" stroke="#000" stroke-linecap="round" stroke-miterlimit="10" stroke-width="2.2"/>
        <path id="路径_8358" data-name="路径 8358" d="M2533.72,860.529a20.228,20.228,0,0,0,6.468-2.009c4.547-2,9.1-3.994,13.5-6.3" transform="translate(-57.498 -5.625)" fill="none" stroke="#000" stroke-linecap="round" stroke-linejoin="round" stroke-miterlimit="10" stroke-width="2.2"/>
        <path id="路径_8359" data-name="路径 8359" d="M2546.7,850.681a49.613,49.613,0,0,1-13.43,22.409" transform="translate(-57.298 -4.931)" fill="none" stroke="#000" stroke-linecap="round" stroke-miterlimit="10" stroke-width="2.2"/>
        <path id="路径_8360" data-name="路径 8360" d="M2548.51,872.969a28.67,28.67,0,0,0,8.11-3.143" transform="translate(-64.176 -13.572)" fill="none" stroke="#000" stroke-linecap="round" stroke-miterlimit="10" stroke-width="2.2"/>
        <path id="路径_8361" data-name="路径 8361" d="M2550.44,876.5a7.955,7.955,0,0,1-1.549,5.023l9.367-2.333q-.646,5.252-1.535,10.471c-.05.294-.152.645-.441.716a.78.78,0,0,1-.543-.145l-4.724-2.649" transform="translate(-64.349 -16.585)" fill="none" stroke="#000" stroke-linecap="round" stroke-linejoin="round" stroke-miterlimit="10" stroke-width="2.2"/>
        <path id="路径_8362" data-name="路径 8362" d="M2580.98,851.04a23.253,23.253,0,0,0,5.085,1.34" transform="translate(-78.832 -5.093)" fill="none" stroke="#000" stroke-linecap="round" stroke-miterlimit="10" stroke-width="2.2"/>
        <path id="路径_8363" data-name="路径 8363" d="M2577.23,866.281a26.942,26.942,0,0,0,7.042-2.917" transform="translate(-77.139 -10.656)" fill="none" stroke="#000" stroke-linecap="round" stroke-miterlimit="10" stroke-width="2.2"/>
        <path id="路径_8364" data-name="路径 8364" d="M2577.71,882.636a35.711,35.711,0,0,0,4.688-3.669,11.939,11.939,0,0,0,3.194-4.959" transform="translate(-77.357 -15.46)" fill="none" stroke="#000" stroke-linecap="round" stroke-linejoin="round" stroke-miterlimit="10" stroke-width="2.2"/>
        <path id="路径_8365" data-name="路径 8365" d="M2599.24,847.662c4.235.082,8.228-1.794,12.339-2.815" transform="translate(-87.073 -2.298)" fill="none" stroke="#000" stroke-linecap="round" stroke-miterlimit="10" stroke-width="2.2"/>
        <path id="路径_8366" data-name="路径 8366" d="M2610.22,839.756a56.361,56.361,0,0,1,1.124,12.067" transform="translate(-92.029)" fill="none" stroke="#000" stroke-linecap="round" stroke-miterlimit="10" stroke-width="2.2"/>
        <path id="路径_8367" data-name="路径 8367" d="M2602.2,852.21a32.081,32.081,0,0,1-6.351,8.716" transform="translate(-85.539 -5.621)" fill="none" stroke="#000" stroke-linecap="round" stroke-miterlimit="10" stroke-width="2.2"/>
        <path id="路径_8368" data-name="路径 8368" d="M2613.73,853.532a16.357,16.357,0,0,0,6.6,2.558" transform="translate(-93.612 -6.218)" fill="none" stroke="#000" stroke-linecap="round" stroke-miterlimit="10" stroke-width="2.2"/>
        <path id="路径_8369" data-name="路径 8369" d="M2603.69,865.491a50.717,50.717,0,0,1-7.036,11.323" transform="translate(-85.906 -11.616)" fill="none" stroke="#000" stroke-linecap="round" stroke-miterlimit="10" stroke-width="2.2"/>
        <path id="路径_8370" data-name="路径 8370" d="M2610.54,866.14c1.908,1.046,3.735,2.24,5.687,3.2a14.9,14.9,0,0,0,6.238,1.731" transform="translate(-92.172 -11.909)" fill="none" stroke="#000" stroke-linecap="round" stroke-linejoin="round" stroke-miterlimit="10" stroke-width="2.2"/>
        <path id="路径_8371" data-name="路径 8371" d="M2609.69,873.462a72.931,72.931,0,0,1,1.05,14.235,10.836,10.836,0,0,0-3.515-2.381" transform="translate(-90.675 -15.213)" fill="none" stroke="#000" stroke-linecap="round" stroke-linejoin="round" stroke-miterlimit="10" stroke-width="2.2"/>
        <path id="路径_8372" data-name="路径 8372" d="M2601.36,885.32l3.615.707q-1.8,2.358-3.8,4.551" transform="translate(-87.944 -20.565)" fill="none" stroke="#000" stroke-linecap="round" stroke-linejoin="round" stroke-miterlimit="10" stroke-width="2.2"/>
        <path id="路径_8373" data-name="路径 8373" d="M2621.42,879.458a6.555,6.555,0,0,1-2.672,2.372c-.149.072-.319.158-.362.319-.049.184.094.358.225.5,1.944,2.019,4.006,4.114,6.682,4.946" transform="translate(-95.709 -17.92)" fill="none" stroke="#000" stroke-linecap="round" stroke-linejoin="round" stroke-miterlimit="10" stroke-width="2.2"/>
        <path id="路径_8374" data-name="路径 8374" d="M2642.99,888.774a3.306,3.306,0,0,1,1.1,2.368,3.253,3.253,0,0,1-.469,1.174l-1.555,2.777" transform="translate(-106.403 -22.124)" fill="none" stroke="#000" stroke-linecap="round" stroke-linejoin="round" stroke-miterlimit="10" stroke-width="2.2"/>
        <path id="路径_8393" data-name="路径 8393" d="M2774.25,856.279a25.808,25.808,0,0,0,8.8-2.452" transform="translate(-222.035 -6.351)" fill="none" stroke="#000" stroke-linecap="round" stroke-miterlimit="10" stroke-width="2.2"/>
        <path id="路径_8394" data-name="路径 8394" d="M2781.39,848.748l.468,24.52a7.636,7.636,0,0,0-2.849-2.445" transform="translate(-224.181 -4.059)" fill="none" stroke="#000" stroke-linecap="round" stroke-linejoin="round" stroke-miterlimit="10" stroke-width="2.2"/>
        <path id="路径_8395" data-name="路径 8395" d="M2773.83,877.285a77.486,77.486,0,0,0,10.233-6.812" transform="translate(-221.842 -13.864)" fill="none" stroke="#000" stroke-linecap="round" stroke-miterlimit="10" stroke-width="2.2"/>
        <path id="路径_8396" data-name="路径 8396" d="M2804.5,843.495a12.593,12.593,0,0,0,2.883,1.5" transform="translate(-235.688 -1.688)" fill="none" stroke="#000" stroke-linecap="round" stroke-miterlimit="10" stroke-width="2.2"/>
        <path id="路径_8397" data-name="路径 8397" d="M2795.76,854.152a60.892,60.892,0,0,0,15.52-4.789" transform="translate(-231.744 -4.336)" fill="none" stroke="#000" stroke-linecap="round" stroke-miterlimit="10" stroke-width="2.2"/>
        <path id="路径_8398" data-name="路径 8398" d="M2798.77,866.517a13.56,13.56,0,0,1,1.171,8.208,40.4,40.4,0,0,1-2.291,8.095" transform="translate(-232.596 -12.079)" fill="none" stroke="#000" stroke-linecap="round" stroke-linejoin="round" stroke-miterlimit="10" stroke-width="2.2"/>
        <path id="路径_8399" data-name="路径 8399" d="M2800.79,867.005a49.456,49.456,0,0,1,8.838-3.441q-.816,6.048-1.225,12.141c-.08,1.183-.09,2.528.759,3.358s2.2.79,3.386.661a3.282,3.282,0,0,0,2.088-.755c.917-.96.407-2.527-.152-3.73" transform="translate(-234.013 -10.746)" fill="none" stroke="#000" stroke-linecap="round" stroke-linejoin="round" stroke-miterlimit="10" stroke-width="2.2"/>
        <path id="路径_8400" data-name="路径 8400" d="M2837.51,856.159a24.561,24.561,0,0,0,10.222-3.094" transform="translate(-250.588 -6.007)" fill="none" stroke="#000" stroke-linecap="round" stroke-miterlimit="10" stroke-width="2.2"/>
        <path id="路径_8401" data-name="路径 8401" d="M2843.97,848.728a174.708,174.708,0,0,1,.785,26.194,49.339,49.339,0,0,0-5.019-3.125" transform="translate(-251.591 -4.05)" fill="none" stroke="#000" stroke-linecap="round" stroke-linejoin="round" stroke-miterlimit="10" stroke-width="2.2"/>
        <path id="路径_8402" data-name="路径 8402" d="M2837.56,878.67q4.925-3.07,9.757-6.285" transform="translate(-250.607 -14.727)" fill="none" stroke="#000" stroke-linecap="round" stroke-miterlimit="10" stroke-width="2.2"/>
        <path id="路径_8403" data-name="路径 8403" d="M2863,844a56.32,56.32,0,0,0,.087,5.849,4.072,4.072,0,0,0,.969,2.831,3.4,3.4,0,0,0,1.919.73c2.663.314,5.3-.6,7.829-1.5" transform="translate(-262.071 -1.916)" fill="none" stroke="#000" stroke-linecap="round" stroke-linejoin="round" stroke-miterlimit="10" stroke-width="2.2"/>
        <path id="路径_8404" data-name="路径 8404" d="M2872.09,843.577a20.024,20.024,0,0,1-7.249,5.549" transform="translate(-262.923 -1.725)" fill="none" stroke="#000" stroke-linecap="round" stroke-miterlimit="10" stroke-width="2.2"/>
        <path id="路径_8405" data-name="路径 8405" d="M2863.92,872.341q.665,6.884.829,13.8" transform="translate(-262.508 -14.707)" fill="none" stroke="#000" stroke-linecap="round" stroke-miterlimit="10" stroke-width="2.2"/>
        <path id="路径_8406" data-name="路径 8406" d="M2864.3,872.784a26.771,26.771,0,0,1,7.121-1.531,2.45,2.45,0,0,1,1.919.424,2.52,2.52,0,0,1,.565,1.6q.568,5.386.615,10.811" transform="translate(-262.677 -14.207)" fill="none" stroke="#000" stroke-linecap="round" stroke-linejoin="round" stroke-miterlimit="10" stroke-width="2.2"/>
        <path id="路径_8407" data-name="路径 8407" d="M2865.32,885.346a37.6,37.6,0,0,0,8.243-2.32" transform="translate(-263.137 -19.53)" fill="none" stroke="#000" stroke-linecap="round" stroke-miterlimit="10" stroke-width="2.2"/>
        <path id="路径_8408" data-name="路径 8408" d="M2866.67,896.46a69.264,69.264,0,0,0,10.328-.836" transform="translate(-263.746 -25.216)" fill="none" stroke="#000" stroke-linecap="round" stroke-miterlimit="10" stroke-width="2.2"/>
        <path id="路径_8409" data-name="路径 8409" d="M2898.99,849.673a18.109,18.109,0,0,1-2.408,7.6c.273.3.768.151,1.137-.023l4.941-2.32a13.048,13.048,0,0,1-2.716,5.644c-1.271,1.684-2.724,3.231-3.9,4.986.409.537,1.239.414,1.88.2a19.761,19.761,0,0,0,6.337-3.461" transform="translate(-277.006 -4.476)" fill="none" stroke="#000" stroke-linecap="round" stroke-linejoin="round" stroke-miterlimit="10" stroke-width="2.2"/>
        <path id="路径_8410" data-name="路径 8410" d="M2895.51,888.742q2.444-1.058,4.8-2.306a12.511,12.511,0,0,0,4.16-3.1" transform="translate(-276.764 -19.671)" fill="none" stroke="#000" stroke-linecap="round" stroke-linejoin="round" stroke-miterlimit="10" stroke-width="2.2"/>
        <path id="路径_8411" data-name="路径 8411" d="M2920.06,845.212a25.606,25.606,0,0,0,6.916,2.264" transform="translate(-287.845 -2.463)" fill="none" stroke="#000" stroke-linecap="round" stroke-miterlimit="10" stroke-width="2.2"/>
        <path id="路径_8412" data-name="路径 8412" d="M2915.36,857.664a49.128,49.128,0,0,0,15.514-5.06" transform="translate(-285.722 -5.799)" fill="none" stroke="#000" stroke-linecap="round" stroke-miterlimit="10" stroke-width="2.2"/>
        <path id="路径_8413" data-name="路径 8413" d="M2927.41,861.669a18.964,18.964,0,0,1-1.151,5.088c-.848,2.515-1.816,4.989-2.876,7.422-1.122,2.573-2.608,5.342-5.267,6.24" transform="translate(-286.965 -9.89)" fill="none" stroke="#000" stroke-linecap="round" stroke-linejoin="round" stroke-miterlimit="10" stroke-width="2.2"/>
        <path id="路径_8414" data-name="路径 8414" d="M2918.77,875.14a33.1,33.1,0,0,0,19.034,12.725" transform="translate(-287.262 -15.971)" fill="none" stroke="#000" stroke-linecap="round" stroke-miterlimit="10" stroke-width="2.2"/>
        <path id="路径_8415" data-name="路径 8415" d="M2961.19,853.922a26.4,26.4,0,0,0,7.856,1.623" transform="translate(-306.407 -6.394)" fill="none" stroke="#000" stroke-linecap="round" stroke-miterlimit="10" stroke-width="2.2"/>
        <path id="路径_8416" data-name="路径 8416" d="M2958.7,869.632q3.724-1.354,7.327-3.015" transform="translate(-305.285 -12.124)" fill="none" stroke="#000" stroke-linecap="round" stroke-miterlimit="10" stroke-width="2.2"/>
        <path id="路径_8417" data-name="路径 8417" d="M2958.79,885.325q4.534-3.456,8.788-7.263" transform="translate(-305.325 -17.289)" fill="none" stroke="#000" stroke-linecap="round" stroke-miterlimit="10" stroke-width="2.2"/>
        <path id="路径_8418" data-name="路径 8418" d="M2987.78,842.206c-2.458,4.755-5.047,9.668-9.3,12.925" transform="translate(-314.215 -1.106)" fill="none" stroke="#000" stroke-linecap="round" stroke-miterlimit="10" stroke-width="2.2"/>
        <path id="路径_8419" data-name="路径 8419" d="M2994.58,847.4a45.858,45.858,0,0,0,9.011,5.4" transform="translate(-321.478 -3.45)" fill="none" stroke="#000" stroke-linecap="round" stroke-miterlimit="10" stroke-width="2.2"/>
        <path id="路径_8420" data-name="路径 8420" d="M2984.99,862.378a28,28,0,0,0,9.207-2.828" transform="translate(-317.153 -8.934)" fill="none" stroke="#000" stroke-linecap="round" stroke-miterlimit="10" stroke-width="2.2"/>
        <path id="路径_8421" data-name="路径 8421" d="M2982.49,873.855a32.553,32.553,0,0,0,14.307-4.238" transform="translate(-316.023 -13.478)" fill="none" stroke="#000" stroke-linecap="round" stroke-miterlimit="10" stroke-width="2.2"/>
        <path id="路径_8422" data-name="路径 8422" d="M2993.45,866.475a81.95,81.95,0,0,1,.945,16.957.3.3,0,0,1-.114.273.3.3,0,0,1-.242-.024,19.4,19.4,0,0,1-4.5-2.544" transform="translate(-319.205 -12.06)" fill="none" stroke="#000" stroke-linecap="round" stroke-linejoin="round" stroke-miterlimit="10" stroke-width="2.2"/>
        <path id="路径_8423" data-name="路径 8423" d="M2982.89,886.515a35.526,35.526,0,0,1-2.323,5.5" transform="translate(-315.152 -21.105)" fill="none" stroke="#000" stroke-linecap="round" stroke-miterlimit="10" stroke-width="2.2"/>
        <path id="路径_8424" data-name="路径 8424" d="M3006.78,883.481a20.693,20.693,0,0,0,4.734,5.828" transform="translate(-326.988 -19.735)" fill="none" stroke="#000" stroke-linecap="round" stroke-miterlimit="10" stroke-width="2.2"/>
        <path id="路径_8425" data-name="路径 8425" d="M3036.76,845.235c3.845-.563,7.7-1.126,11.576-1.331.677-.036,1.49.009,1.836.591a1.861,1.861,0,0,1-.012,1.471,26.183,26.183,0,0,1-1.2,3.2" transform="translate(-340.519 -1.868)" fill="none" stroke="#000" stroke-linecap="round" stroke-linejoin="round" stroke-miterlimit="10" stroke-width="2.2"/>
        <path id="路径_8426" data-name="路径 8426" d="M3036.27,857.859a95.638,95.638,0,0,0,11.795-3.313" transform="translate(-340.295 -6.676)" fill="none" stroke="#000" stroke-linecap="round" stroke-miterlimit="10" stroke-width="2.2"/>
        <path id="路径_8427" data-name="路径 8427" d="M3031.84,849.015a49.655,49.655,0,0,1-3.988,25.864" transform="translate(-336.496 -4.179)" fill="none" stroke="#000" stroke-linecap="round" stroke-miterlimit="10" stroke-width="2.2"/>
        <path id="路径_8428" data-name="路径 8428" d="M3041.77,867.67a48.888,48.888,0,0,0,9.19-1.6" transform="translate(-342.778 -11.877)" fill="none" stroke="#000" stroke-linecap="round" stroke-miterlimit="10" stroke-width="2.2"/>
        <path id="路径_8429" data-name="路径 8429" d="M3037.74,877.009a12.883,12.883,0,0,0,4.635-.521c2.015-.48,4.031-.96,6.039-1.468a17.706,17.706,0,0,0,4.713-1.7" transform="translate(-340.961 -15.148)" fill="none" stroke="#000" stroke-linecap="round" stroke-linejoin="round" stroke-miterlimit="10" stroke-width="2.2"/>
        <path id="路径_8430" data-name="路径 8430" d="M3047.35,879.784a26.842,26.842,0,0,1-1.973,4.942,18.955,18.955,0,0,0-1.633,3.513.832.832,0,0,0,.079.813.869.869,0,0,0,.672.158,71.951,71.951,0,0,0,11.042-1.389" transform="translate(-343.638 -18.067)" fill="none" stroke="#000" stroke-linecap="round" stroke-linejoin="round" stroke-miterlimit="10" stroke-width="2.2"/>
        <path id="路径_8431" data-name="路径 8431" d="M3061.95,889.028a19.293,19.293,0,0,0,4.4,4.946" transform="translate(-351.888 -22.239)" fill="none" stroke="#000" stroke-linecap="round" stroke-miterlimit="10" stroke-width="2.2"/>
      </g>
    </g>
    <g id="组_42002" data-name="组 42002" transform="translate(644 -320.111)">
      <g id="组_35476-2" data-name="组 35476" transform="translate(523.183 -235.266)">
        <path id="路径_861-2" data-name="路径 861" d="M634.95,635.634c17.181,0,34.151,6.207,46.4,17.883,8.365,7.975,13.289,19.112,15.717,30.5" fill="none"/>
        <path id="路径_862-2" data-name="路径 862" d="M738.709,712.55a22.31,22.31,0,0,1,7.138,5.9l2.917-13.318" transform="translate(-48.238 -32.31)" fill="none"/>
      </g>
      <g id="组_35495-2" data-name="组 35495" transform="translate(-1567.32 -449.645)">
        <path id="路径_8320-2" data-name="路径 8320" d="M2294.73,841.073a22.54,22.54,0,0,0,6.457.643" transform="translate(-5.602 -0.594)" fill="none"/>
        <path id="路径_8321-2" data-name="路径 8321" d="M2282.32,849.02q11.052-2.91,22.036-6.073" transform="translate(0 -1.44)" fill="none"/>
        <path id="路径_8322-2" data-name="路径 8322" d="M2293.94,858.29a32.372,32.372,0,0,1,2.689,4.894" transform="translate(-5.245 -8.365)" fill="none"/>
        <path id="路径_8323-2" data-name="路径 8323" d="M2296.25,858.329q3.846-1.473,7.806-2.626a.488.488,0,0,1,.4,0,.5.5,0,0,1,.149.431l.019,2.794a1.064,1.064,0,0,1-.069.469,1.039,1.039,0,0,1-.49.414,24.823,24.823,0,0,1-6.156,2.275" transform="translate(-6.289 -7.178)" fill="none"/>
        <path id="路径_8324-2" data-name="路径 8324" d="M2283.4,876.257l.956,12.757" transform="translate(-0.487 -16.475)" fill="none"/>
        <path id="路径_8325-2" data-name="路径 8325" d="M2290.58,873.989a38.495,38.495,0,0,1,17.929-4.738,1.181,1.181,0,0,1,.721.148,1.2,1.2,0,0,1,.363.857,91.044,91.044,0,0,1,.7,14.981,19.006,19.006,0,0,1-5.479-.815" transform="translate(-3.729 -13.312)" fill="none"/>
        <path id="路径_8326-2" data-name="路径 8326" d="M2297.83,886.467l1.985,4.83" transform="translate(-7 -21.083)" fill="none"/>
        <path id="路径_8327-2" data-name="路径 8327" d="M2298.2,884.419a18.924,18.924,0,0,1,6.478-1.762,2.666,2.666,0,0,1,1.558.2c.824.469.967,1.576,1.016,2.524a.886.886,0,0,1-.514,1.051q-2.446,1.469-4.9,2.929" transform="translate(-7.165 -19.351)" fill="none"/>
        <path id="路径_8328-2" data-name="路径 8328" d="M2341.6,849.521a26.473,26.473,0,0,1-2.834,7.081c.364.651,1.328.5,2.034.265l3.38-1.139c-1.057,3.789-3.349,7.1-5.6,10.321a1.8,1.8,0,0,0,1.643.034,27.444,27.444,0,0,0,5.183-2.287" transform="translate(-25.393 -4.408)" fill="none"/>
        <path id="路径_8329-2" data-name="路径 8329" d="M2338.25,889.729c3.3-.422,6.121-2.505,8.773-4.518" transform="translate(-25.244 -20.516)" fill="none"/>
        <path id="路径_8330-2" data-name="路径 8330" d="M2361.24,850.009a49.665,49.665,0,0,1-4.708,24.622" transform="translate(-33.497 -4.628)" fill="none"/>
        <path id="路径_8331-2" data-name="路径 8331" d="M2365.51,847.075a62.141,62.141,0,0,0,8.823-1.794l-4.87,9.3c-.132.251-.242.61-.012.776a.608.608,0,0,0,.465.039l7.545-1.4a78.169,78.169,0,0,1-5.254,11.959c-1.288,2.372-2.978,4.887-5.61,5.481" transform="translate(-37.547 -2.494)" fill="none"/>
        <path id="路径_8332-2" data-name="路径 8332" d="M2371,874.842a23.927,23.927,0,0,0,14.535,10.516" transform="translate(-40.028 -15.836)" fill="none"/>
        <path id="路径_8333-2" data-name="路径 8333" d="M2406.09,844a28.332,28.332,0,0,1-3.326,13.447" transform="translate(-54.364 -1.916)" fill="none"/>
        <path id="路径_8334-2" data-name="路径 8334" d="M2408.28,852.162a22.12,22.12,0,0,0,5.492-2.35" transform="translate(-56.85 -4.539)" fill="none"/>
        <path id="路径_8335-2" data-name="路径 8335" d="M2409,864.427a19.6,19.6,0,0,0,4.809-1.9" transform="translate(-57.176 -10.277)" fill="none"/>
        <path id="路径_8336-2" data-name="路径 8336" d="M2405.75,876.791a10.9,10.9,0,0,0,6.905-2.952" transform="translate(-55.71 -15.383)" fill="none"/>
        <path id="路径_8337-2" data-name="路径 8337" d="M2411.74,865.5q.035,8.919.392,17.832a13.143,13.143,0,0,0,3.98-6.276" transform="translate(-58.412 -11.62)" fill="none"/>
        <path id="路径_8338-2" data-name="路径 8338" d="M2431.46,845.275l4.869.2a.937.937,0,0,1,1.031,1.2,97.464,97.464,0,0,1-.371,10.268" transform="translate(-67.315 -2.491)" fill="none"/>
        <path id="路径_8339-2" data-name="路径 8339" d="M2430.26,857.818a35.194,35.194,0,0,0,6.041-3.289" transform="translate(-66.773 -6.668)" fill="none"/>
        <path id="路径_8340-2" data-name="路径 8340" d="M2428.98,851.5l-.043,23.33,2.9-1.545" transform="translate(-66.175 -5.302)" fill="none"/>
        <path id="路径_8341-2" data-name="路径 8341" d="M2444.03,870.978a15.3,15.3,0,0,1-3.241,5.106" transform="translate(-71.524 -14.092)" fill="none"/>
        <path id="路径_8342-2" data-name="路径 8342" d="M2436.28,876.739a21.376,21.376,0,0,0,3.941,6.283,12.412,12.412,0,0,0,5.78,3.187" transform="translate(-69.49 -16.692)" fill="none"/>
        <path id="路径_8343-2" data-name="路径 8343" d="M2429.55,869.32q2.994-1.809,6.136-3.355" transform="translate(-66.451 -11.83)" fill="none"/>
        <path id="路径_8344-2" data-name="路径 8344" d="M2461.5,846.744a27.886,27.886,0,0,0,4.249.975" transform="translate(-80.874 -3.154)" fill="none"/>
        <path id="路径_8345-2" data-name="路径 8345" d="M2460.44,862.352l4.8-4.059a6.563,6.563,0,0,0,1.439-1.507" transform="translate(-80.396 -7.687)" fill="none"/>
        <path id="路径_8346-2" data-name="路径 8346" d="M2471.2,843.256a82.028,82.028,0,0,1,.321,13.3" transform="translate(-85.25 -1.58)" fill="none"/>
        <path id="路径_8347-2" data-name="路径 8347" d="M2484.89,840a14.139,14.139,0,0,1-1.958,6.557l7.142-2.551a25.915,25.915,0,0,1-3.394,7.535c-.84,1.272-2.054,2.594-3.574,2.484" transform="translate(-90.544 -0.11)" fill="none"/>
        <path id="路径_8348-2" data-name="路径 8348" d="M2484.47,854.575l3.725,1.453" transform="translate(-91.241 -6.689)" fill="none"/>
        <path id="路径_8349-2" data-name="路径 8349" d="M2477.4,872.691a61.544,61.544,0,0,1,.763,15.958c-.011.125-.04.275-.157.319a.338.338,0,0,1-.251-.043,35.2,35.2,0,0,1-3.316-1.735" transform="translate(-86.711 -14.865)" fill="none"/>
        <path id="路径_8350-2" data-name="路径 8350" d="M2463.75,884.385q2.9.084,5.79-.117a16.212,16.212,0,0,1-5.66,7.523" transform="translate(-81.889 -20.091)" fill="none"/>
        <path id="路径_8351-2" data-name="路径 8351" d="M2490.99,875.048l-4.15,3.576a.363.363,0,0,0-.136.18.368.368,0,0,0,.093.274,33.942,33.942,0,0,0,9.393,9.243" transform="translate(-92.248 -15.929)" fill="none"/>
        <path id="路径_8352-2" data-name="路径 8352" d="M2512.52,857.5a47.015,47.015,0,0,1,1,7.544" transform="translate(-103.902 -8.007)" fill="none"/>
        <path id="路径_8353-2" data-name="路径 8353" d="M2528.75,851.25a23.88,23.88,0,0,1-.954,6.865" transform="translate(-110.795 -5.188)" fill="none"/>
        <path id="路径_8354-2" data-name="路径 8354" d="M2517.85,849.276a49.948,49.948,0,0,1-3.861,25.968" transform="translate(-104.566 -4.297)" fill="none"/>
        <path id="路径_8355-2" data-name="路径 8355" d="M2522.9,873.65l2.657,4.034" transform="translate(-108.587 -15.298)" fill="none"/>
        <path id="路径_8356-2" data-name="路径 8356" d="M2540.27,845.878a38.527,38.527,0,0,0,10.144-3.61" transform="translate(-116.426 -1.134)" fill="none"/>
        <path id="路径_8357-2" data-name="路径 8357" d="M2547.47,841.005a32.29,32.29,0,0,1,.14,9.6" transform="translate(-119.677 -0.564)" fill="none"/>
        <path id="路径_8358-2" data-name="路径 8358" d="M2533.72,860.529a20.228,20.228,0,0,0,6.468-2.009c4.547-2,9.1-3.994,13.5-6.3" transform="translate(-113.468 -5.625)" fill="none"/>
        <path id="路径_8359-2" data-name="路径 8359" d="M2546.7,850.681a49.613,49.613,0,0,1-13.43,22.409" transform="translate(-113.268 -4.931)" fill="none"/>
        <path id="路径_8360-2" data-name="路径 8360" d="M2548.51,872.969a28.67,28.67,0,0,0,8.11-3.143" transform="translate(-120.146 -13.572)" fill="none"/>
        <path id="路径_8361-2" data-name="路径 8361" d="M2550.44,876.5a7.955,7.955,0,0,1-1.549,5.023l9.367-2.333q-.646,5.252-1.535,10.471c-.05.294-.152.645-.441.716a.78.78,0,0,1-.543-.145l-4.724-2.649" transform="translate(-120.319 -16.585)" fill="none"/>
        <path id="路径_8362-2" data-name="路径 8362" d="M2580.98,851.04a23.253,23.253,0,0,0,5.085,1.34" transform="translate(-134.802 -5.093)" fill="none"/>
        <path id="路径_8363-2" data-name="路径 8363" d="M2577.23,866.281a26.942,26.942,0,0,0,7.042-2.917" transform="translate(-133.109 -10.656)" fill="none"/>
        <path id="路径_8364-2" data-name="路径 8364" d="M2577.71,882.636a35.711,35.711,0,0,0,4.688-3.669,11.939,11.939,0,0,0,3.194-4.959" transform="translate(-133.327 -15.46)" fill="none"/>
        <path id="路径_8365-2" data-name="路径 8365" d="M2599.24,847.662c4.235.082,8.228-1.794,12.339-2.815" transform="translate(-143.043 -2.298)" fill="none"/>
        <path id="路径_8366-2" data-name="路径 8366" d="M2610.22,839.756a56.361,56.361,0,0,1,1.124,12.067" transform="translate(-147.999)" fill="none"/>
        <path id="路径_8367-2" data-name="路径 8367" d="M2602.2,852.21a32.081,32.081,0,0,1-6.351,8.716" transform="translate(-141.509 -5.621)" fill="none"/>
        <path id="路径_8368-2" data-name="路径 8368" d="M2613.73,853.532a16.357,16.357,0,0,0,6.6,2.558" transform="translate(-149.582 -6.218)" fill="none"/>
        <path id="路径_8369-2" data-name="路径 8369" d="M2603.69,865.491a50.717,50.717,0,0,1-7.036,11.323" transform="translate(-141.876 -11.616)" fill="none"/>
        <path id="路径_8370-2" data-name="路径 8370" d="M2610.54,866.14c1.908,1.046,3.735,2.24,5.687,3.2a14.9,14.9,0,0,0,6.238,1.731" transform="translate(-148.142 -11.909)" fill="none"/>
        <path id="路径_8371-2" data-name="路径 8371" d="M2609.69,873.462a72.931,72.931,0,0,1,1.05,14.235,10.836,10.836,0,0,0-3.515-2.381" transform="translate(-146.645 -15.213)" fill="none"/>
        <path id="路径_8372-2" data-name="路径 8372" d="M2601.36,885.32l3.615.707q-1.8,2.358-3.8,4.551" transform="translate(-143.914 -20.565)" fill="none"/>
        <path id="路径_8373-2" data-name="路径 8373" d="M2621.42,879.458a6.555,6.555,0,0,1-2.672,2.372c-.149.072-.319.158-.362.319-.049.184.094.358.225.5,1.944,2.019,4.006,4.114,6.682,4.946" transform="translate(-151.679 -17.92)" fill="none"/>
        <path id="路径_8374-2" data-name="路径 8374" d="M2642.99,888.774a3.306,3.306,0,0,1,1.1,2.368,3.253,3.253,0,0,1-.469,1.174l-1.555,2.777" transform="translate(-162.373 -22.124)" fill="none"/>
        <path id="路径_8375" data-name="路径 8375" d="M2667.57,841.256a33.291,33.291,0,0,1-11.18,15.417" transform="translate(-168.837 -0.677)" fill="none"/>
        <path id="路径_8376" data-name="路径 8376" d="M2677.86,846.879a45.25,45.25,0,0,0,14.867,9.046" transform="translate(-178.527 -3.215)" fill="none"/>
        <path id="路径_8377" data-name="路径 8377" d="M2667.25,863.988a37.53,37.53,0,0,0,10.818-2.8" transform="translate(-173.741 -9.672)" fill="none"/>
        <path id="路径_8378" data-name="路径 8378" d="M2668.75,879.723a62.857,62.857,0,0,0,13.546-3.638" transform="translate(-174.413 -16.397)" fill="none"/>
        <path id="路径_8379" data-name="路径 8379" d="M2679.25,866.25l-.31,15.636" transform="translate(-179.014 -11.958)" fill="none"/>
        <path id="路径_8380" data-name="路径 8380" d="M2662.24,895.308c7.76-.292,15.919-.7,22.51-4.809" transform="translate(-171.478 -22.903)" fill="none"/>
        <path id="路径_8381" data-name="路径 8381" d="M2719.25,840.751a36.25,36.25,0,0,0,5.213,1.508" transform="translate(-197.208 -0.449)" fill="none"/>
        <path id="路径_8382" data-name="路径 8382" d="M2714.74,850.035q6.723-1.586,13.343-3.572" transform="translate(-195.175 -3.027)" fill="none"/>
        <path id="路径_8383" data-name="路径 8383" d="M2721.22,856.771l1.908,2.342" transform="translate(-198.1 -7.68)" fill="none"/>
        <path id="路径_8384" data-name="路径 8384" d="M2729.61,854.01a3.8,3.8,0,0,1-.758,4.443" transform="translate(-201.541 -6.434)" fill="none"/>
        <path id="路径_8385" data-name="路径 8385" d="M2716.8,863.921a57.65,57.65,0,0,0,11.624-3.709" transform="translate(-196.101 -9.233)" fill="none"/>
        <path id="路径_8386" data-name="路径 8386" d="M2716.48,874.8q5.13-1.817,10.064-4.136" transform="translate(-195.959 -13.948)" fill="none"/>
        <path id="路径_8387" data-name="路径 8387" d="M2728.16,866.751q.227,8.507-.348,17.01" transform="translate(-201.074 -12.184)" fill="none"/>
        <path id="路径_8388" data-name="路径 8388" d="M2719.9,877.788a21.578,21.578,0,0,1-4.5,7.06" transform="translate(-195.472 -17.166)" fill="none"/>
        <path id="路径_8389" data-name="路径 8389" d="M2728.27,879.231a34.658,34.658,0,0,0,4.385,3.429" transform="translate(-201.279 -17.817)" fill="none"/>
        <path id="路径_8390" data-name="路径 8390" d="M2750.29,844.125a13.481,13.481,0,0,1-7.679,3.3,33.319,33.319,0,0,1,.841,16.943" transform="translate(-207.754 -1.972)" fill="none"/>
        <path id="路径_8391" data-name="路径 8391" d="M2747.01,858.708a35.209,35.209,0,0,0,10.153-2.916" transform="translate(-209.74 -7.238)" fill="none"/>
        <path id="路径_8392" data-name="路径 8392" d="M2755.42,862.492a73.327,73.327,0,0,1-1.1,21.958" transform="translate(-213.037 -10.262)" fill="none"/>
        <path id="路径_8393-2" data-name="路径 8393" d="M2774.25,856.279a25.808,25.808,0,0,0,8.8-2.452" transform="translate(-222.035 -6.351)" fill="none"/>
        <path id="路径_8394-2" data-name="路径 8394" d="M2781.39,848.748l.468,24.52a7.636,7.636,0,0,0-2.849-2.445" transform="translate(-224.181 -4.059)" fill="none"/>
        <path id="路径_8395-2" data-name="路径 8395" d="M2773.83,877.285a77.486,77.486,0,0,0,10.233-6.812" transform="translate(-221.842 -13.864)" fill="none"/>
        <path id="路径_8396-2" data-name="路径 8396" d="M2804.5,843.495a12.593,12.593,0,0,0,2.883,1.5" transform="translate(-235.688 -1.688)" fill="none"/>
        <path id="路径_8397-2" data-name="路径 8397" d="M2795.76,854.152a60.892,60.892,0,0,0,15.52-4.789" transform="translate(-231.744 -4.336)" fill="none"/>
        <path id="路径_8398-2" data-name="路径 8398" d="M2798.77,866.517a13.56,13.56,0,0,1,1.171,8.208,40.4,40.4,0,0,1-2.291,8.095" transform="translate(-232.596 -12.079)" fill="none"/>
        <path id="路径_8399-2" data-name="路径 8399" d="M2800.79,867.005a49.456,49.456,0,0,1,8.838-3.441q-.816,6.048-1.225,12.141c-.08,1.183-.09,2.528.759,3.358s2.2.79,3.386.661a3.282,3.282,0,0,0,2.088-.755c.917-.96.407-2.527-.152-3.73" transform="translate(-234.013 -10.746)" fill="none"/>
        <path id="路径_8400-2" data-name="路径 8400" d="M2837.51,856.159a24.561,24.561,0,0,0,10.222-3.094" transform="translate(-250.588 -6.007)" fill="none"/>
        <path id="路径_8401-2" data-name="路径 8401" d="M2843.97,848.728a174.708,174.708,0,0,1,.785,26.194,49.339,49.339,0,0,0-5.019-3.125" transform="translate(-251.591 -4.05)" fill="none"/>
        <path id="路径_8402-2" data-name="路径 8402" d="M2837.56,878.67q4.925-3.07,9.757-6.285" transform="translate(-250.607 -14.727)" fill="none"/>
        <path id="路径_8403-2" data-name="路径 8403" d="M2863,844a56.32,56.32,0,0,0,.087,5.849,4.072,4.072,0,0,0,.969,2.831,3.4,3.4,0,0,0,1.919.73c2.663.314,5.3-.6,7.829-1.5" transform="translate(-262.071 -1.916)" fill="none"/>
        <path id="路径_8404-2" data-name="路径 8404" d="M2872.09,843.577a20.024,20.024,0,0,1-7.249,5.549" transform="translate(-262.923 -1.725)" fill="none"/>
        <path id="路径_8405-2" data-name="路径 8405" d="M2863.92,872.341q.665,6.884.829,13.8" transform="translate(-262.508 -14.707)" fill="none"/>
        <path id="路径_8406-2" data-name="路径 8406" d="M2864.3,872.784a26.771,26.771,0,0,1,7.121-1.531,2.45,2.45,0,0,1,1.919.424,2.52,2.52,0,0,1,.565,1.6q.568,5.386.615,10.811" transform="translate(-262.677 -14.207)" fill="none"/>
        <path id="路径_8407-2" data-name="路径 8407" d="M2865.32,885.346a37.6,37.6,0,0,0,8.243-2.32" transform="translate(-263.137 -19.53)" fill="none"/>
        <path id="路径_8408-2" data-name="路径 8408" d="M2866.67,896.46a69.264,69.264,0,0,0,10.328-.836" transform="translate(-263.746 -25.216)" fill="none"/>
        <path id="路径_8409-2" data-name="路径 8409" d="M2898.99,849.673a18.109,18.109,0,0,1-2.408,7.6c.273.3.768.151,1.137-.023l4.941-2.32a13.048,13.048,0,0,1-2.716,5.644c-1.271,1.684-2.724,3.231-3.9,4.986.409.537,1.239.414,1.88.2a19.761,19.761,0,0,0,6.337-3.461" transform="translate(-277.006 -4.476)" fill="none"/>
        <path id="路径_8410-2" data-name="路径 8410" d="M2895.51,888.742q2.444-1.058,4.8-2.306a12.511,12.511,0,0,0,4.16-3.1" transform="translate(-276.764 -19.671)" fill="none"/>
        <path id="路径_8411-2" data-name="路径 8411" d="M2920.06,845.212a25.606,25.606,0,0,0,6.916,2.264" transform="translate(-287.845 -2.463)" fill="none"/>
        <path id="路径_8412-2" data-name="路径 8412" d="M2915.36,857.664a49.128,49.128,0,0,0,15.514-5.06" transform="translate(-285.722 -5.799)" fill="none"/>
        <path id="路径_8413-2" data-name="路径 8413" d="M2927.41,861.669a18.964,18.964,0,0,1-1.151,5.088c-.848,2.515-1.816,4.989-2.876,7.422-1.122,2.573-2.608,5.342-5.267,6.24" transform="translate(-286.965 -9.89)" fill="none"/>
        <path id="路径_8414-2" data-name="路径 8414" d="M2918.77,875.14a33.1,33.1,0,0,0,19.034,12.725" transform="translate(-287.262 -15.971)" fill="none"/>
        <path id="路径_8415-2" data-name="路径 8415" d="M2961.19,853.922a26.4,26.4,0,0,0,7.856,1.623" transform="translate(-306.407 -6.394)" fill="none"/>
        <path id="路径_8416-2" data-name="路径 8416" d="M2958.7,869.632q3.724-1.354,7.327-3.015" transform="translate(-305.285 -12.124)" fill="none"/>
        <path id="路径_8417-2" data-name="路径 8417" d="M2958.79,885.325q4.534-3.456,8.788-7.263" transform="translate(-305.325 -17.289)" fill="none"/>
        <path id="路径_8418-2" data-name="路径 8418" d="M2987.78,842.206c-2.458,4.755-5.047,9.668-9.3,12.925" transform="translate(-314.215 -1.106)" fill="none"/>
        <path id="路径_8419-2" data-name="路径 8419" d="M2994.58,847.4a45.858,45.858,0,0,0,9.011,5.4" transform="translate(-321.478 -3.45)" fill="none"/>
        <path id="路径_8420-2" data-name="路径 8420" d="M2984.99,862.378a28,28,0,0,0,9.207-2.828" transform="translate(-317.153 -8.934)" fill="none"/>
        <path id="路径_8421-2" data-name="路径 8421" d="M2982.49,873.855a32.553,32.553,0,0,0,14.307-4.238" transform="translate(-316.023 -13.478)" fill="none"/>
        <path id="路径_8422-2" data-name="路径 8422" d="M2993.45,866.475a81.95,81.95,0,0,1,.945,16.957.3.3,0,0,1-.114.273.3.3,0,0,1-.242-.024,19.4,19.4,0,0,1-4.5-2.544" transform="translate(-319.205 -12.06)" fill="none"/>
        <path id="路径_8423-2" data-name="路径 8423" d="M2982.89,886.515a35.526,35.526,0,0,1-2.323,5.5" transform="translate(-315.152 -21.105)" fill="none"/>
        <path id="路径_8424-2" data-name="路径 8424" d="M3006.78,883.481a20.693,20.693,0,0,0,4.734,5.828" transform="translate(-326.988 -19.735)" fill="none"/>
        <path id="路径_8425-2" data-name="路径 8425" d="M3036.76,845.235c3.845-.563,7.7-1.126,11.576-1.331.677-.036,1.49.009,1.836.591a1.861,1.861,0,0,1-.012,1.471,26.183,26.183,0,0,1-1.2,3.2" transform="translate(-340.519 -1.868)" fill="none"/>
        <path id="路径_8426-2" data-name="路径 8426" d="M3036.27,857.859a95.638,95.638,0,0,0,11.795-3.313" transform="translate(-340.295 -6.676)" fill="none"/>
        <path id="路径_8427-2" data-name="路径 8427" d="M3031.84,849.015a49.655,49.655,0,0,1-3.988,25.864" transform="translate(-336.496 -4.179)" fill="none"/>
        <path id="路径_8428-2" data-name="路径 8428" d="M3041.77,867.67a48.888,48.888,0,0,0,9.19-1.6" transform="translate(-342.778 -11.877)" fill="none"/>
        <path id="路径_8429-2" data-name="路径 8429" d="M3037.74,877.009a12.883,12.883,0,0,0,4.635-.521c2.015-.48,4.031-.96,6.039-1.468a17.706,17.706,0,0,0,4.713-1.7" transform="translate(-340.961 -15.148)" fill="none"/>
        <path id="路径_8430-2" data-name="路径 8430" d="M3047.35,879.784a26.842,26.842,0,0,1-1.973,4.942,18.955,18.955,0,0,0-1.633,3.513.832.832,0,0,0,.079.813.869.869,0,0,0,.672.158,71.951,71.951,0,0,0,11.042-1.389" transform="translate(-343.638 -18.067)" fill="none"/>
        <path id="路径_8431-2" data-name="路径 8431" d="M3061.95,889.028a19.293,19.293,0,0,0,4.4,4.946" transform="translate(-351.888 -22.239)" fill="none"/>
      </g>
    </g>
  </g>
</svg>
