<svg xmlns="http://www.w3.org/2000/svg" width="1921" height="1080.001" viewBox="0 0 1921 1080.001">
  <path id="排除_4" data-name="排除 4" d="M1921,1080H0V0H1921V1080ZM862.621,621.876,853.47,634.01c.744.635,1.508,1.283,2.357,2l.007.006c4.518,3.827,9.64,8.164,13.062,11.993a69.127,69.127,0,0,1-13.449,13.666,68.08,68.08,0,0,1-16.488,9.266c3.005,3.065,7.079,9.255,9.282,13.467a94.044,94.044,0,0,0,10.7-5.913,85.481,85.481,0,0,0,9.629-7.193,83.653,83.653,0,0,0,8.548-8.552,88.459,88.459,0,0,0,7.452-9.991,109.988,109.988,0,0,0,11.564-24.619,172.084,172.084,0,0,0,7.016-31.331l-9.8-2.933-2.615.533H866.674c1.454-4.716,2.623-9.5,3.792-14.4h34.9v-15.2h-67.98v15.2h17.387a137.6,137.6,0,0,1-7.828,25.484,73.99,73.99,0,0,1-12.043,19.984,71.812,71.812,0,0,1,11.765,10.933,85.264,85.264,0,0,0,8.269-12.533,130.731,130.731,0,0,0,6.9-14.934h24.185a122.137,122.137,0,0,1-8.5,25.067c-3.43-2.984-7.82-6.482-11.694-9.568l-.118-.094c-1.1-.876-2.139-1.7-3.093-2.471h0ZM1105.65,561.61v44.8c0,10.323-.349,22.447-2.941,34.1-2.788,12.533-7.727,22.575-15.1,30.7a55.093,55.093,0,0,1,6.618,6.033,40.312,40.312,0,0,1,5.54,7.033,68.825,68.825,0,0,0,7.478-9.548,74.152,74.152,0,0,0,5.579-10.336,99.674,99.674,0,0,0,6.684-22.383h49.547v41.466h17.125V625.343h-64.712c.356-5.209.523-10.632.523-17.067h79.746v-16.4h-30.853V558.943h-16.864v32.934h-32.029V561.61ZM742.218,667.343a58.778,58.778,0,0,1,5.621,15.466h.059c10.043,0,17.038-.176,22.557-2.532a10.836,10.836,0,0,0,5.818-5.184c1.04-2.136,1.5-4.938,1.5-9.083V634.943l26.93-2.266a115.635,115.635,0,0,1,8.106,11.866l12.157-7.466a120.348,120.348,0,0,0-11-14.884,180.593,180.593,0,0,0-14.625-15.383l-11.766,6.267c2.232,2.157,4.669,4.73,7.452,7.867l-39.351,2.8c8.658-4.45,17.131-9.317,25.182-14.467a276.017,276.017,0,0,0,24.1-17.266l-11.243-10.267a220.03,220.03,0,0,1-18.433,14.4l-26.146,1.334a184.119,184.119,0,0,0,21.963-18.534c18.432-1.895,34.046-4.407,46.41-7.466L806.538,558.41c-10.359,2.5-24.707,4.766-41.491,6.55-15.357,1.633-32.247,2.826-48.844,3.45,1.325,3.316,3.392,9.747,3.66,13.867,8.663-.239,18.37-.718,29.676-1.467-6.428,6.052-13.217,11.318-16.341,13.2-3.839,2.835-6.84,4.672-9.935,5.066a110.45,110.45,0,0,1,4.444,13.6c3.009-1.256,7.725-2.035,27.715-3.334-10.747,6.477-17.727,9.9-19.61,10.8-8.413,4.359-13.317,6.548-18.433,7.2a129.271,129.271,0,0,1,4.445,14c2.16-.842,4.564-1.477,10.459-2.233,5.447-.7,13.768-1.493,29.676-2.833v29.2c0,1.557-.591,2-2.876,2.134C752.319,667.61,746.645,667.52,742.218,667.343Zm177.141.133a62.681,62.681,0,0,1,4.967,15.2c.98.012,1.939.019,2.848.019A91.728,91.728,0,0,0,938.9,682.1a27.173,27.173,0,0,0,8.3-2.227,10.485,10.485,0,0,0,5.2-5.3c1.017-2.334,1.47-5.387,1.47-9.9V560.01H938.184V664.676c0,2.221-.731,2.934-3.007,2.934-.873.055-2.612.087-4.77.087C926.9,667.7,922.871,667.617,919.359,667.476Zm74.386-48.266v40.666a41.23,41.23,0,0,0,.964,10.021,13.374,13.374,0,0,0,3.415,6.446,13.984,13.984,0,0,0,6.651,3.446,44.877,44.877,0,0,0,10.67,1.021h22.225a27.986,27.986,0,0,0,9.192-1.227,12.845,12.845,0,0,0,6.1-4.29,22.74,22.74,0,0,0,3.75-8.265,83.4,83.4,0,0,0,2.132-13.152,57.79,57.79,0,0,1-7.7-2.583,30.449,30.449,0,0,1-6.814-3.683c-.372,7.351-.814,12.118-1.961,14.734s-3.027,3.133-5.883,3.133h-19.48c-3.158,0-5.081-.154-6.193-.967-1.157-.845-1.389-2.45-1.389-4.766V619.21Zm-196.358,22.8-12.681,8.534c9.709,7.236,22.661,18.4,28.631,25.733l13.727-9.333c-6.365-7.286-19.5-17.657-29.677-24.934Zm-61.574.666c-6.3,8.562-16.765,17.616-26.669,23.067a108.881,108.881,0,0,1,13.6,10.533,136.325,136.325,0,0,0,15.017-12.566A133.9,133.9,0,0,0,751.5,648.543l-15.688-5.866ZM974.4,623.21a133.273,133.273,0,0,1-5.115,20.567,95.553,95.553,0,0,1-7.958,17.967L976.1,669.61a102.508,102.508,0,0,0,7.811-19.983c1.872-6.379,3.594-13.537,5.262-21.884Zm95.433-.933-14.773,4.4c5.968,13.834,11.021,30.722,12.288,41.067l16.08-5.067a113.151,113.151,0,0,0-5.082-19.45A205.375,205.375,0,0,0,1069.83,622.276ZM911.384,572.943v76.4h15.3v-76.4ZM1025.9,597.61h0l-13.465,6.666a176.26,176.26,0,0,1,10.017,17.684,91.927,91.927,0,0,1,6.586,16.583l14.773-7.733c-3.1-10.055-11.584-24.169-17.91-33.2Zm-19.087-7.6h31.9v12.8h15.558v-12.8h26.407v-15.2h-26.407V558.677h-15.558v16.132h-31.9V558.677H991.391v16.132H965.506v15.2h25.885v12.667h15.426V590.01Zm-224.25-185.2v55.184c0,8.546-.119,17.666-.985,26.455-1.016,10.311-2.879,18.441-5.7,24.853a37.483,37.483,0,0,1,9.754,6.68c3.167-6.872,5.454-16.217,6.8-27.775a257.944,257.944,0,0,0,1.487-29.68h44.226V442.488a49.747,49.747,0,0,1,6.548,7.35,119.185,119.185,0,0,1-3.891,15.465,62.816,62.816,0,0,1-6,13.262V473.62h-7.349V462.4H817.041v32.068a17.842,17.842,0,0,1-2.138,8.818c-.09-.723-.2-1.507-.3-2.2v-.01c-.2-1.455-.414-2.961-.5-4.2l-7.215,2.406v-14.3h7.75V473.62h-7.75V462.263H796.464v32.2a17.979,17.979,0,0,1-1.67,7.884,12.4,12.4,0,0,1-3.274,4.275,28.479,28.479,0,0,1,5.746,8.017c1.73-1.464,4.451-2.957,15.232-7.483a36.969,36.969,0,0,1,5.344,7.483c1.7-1.567,4.5-2.95,18.706-8.552a63.422,63.422,0,0,1-1.336-9.754l-7.749,2.539v-13.9h7.349v-.535a55.054,55.054,0,0,1,4.944,5.211A57.14,57.14,0,0,0,845.5,480.2a91.363,91.363,0,0,0,4.543-11.257h7.883a105.874,105.874,0,0,1-3.474,13.227c-1.843-1.56-3.682-2.961-5.078-4.008l-7.216,8.551c1.974,1.742,4.264,3.9,6.285,5.8l.3.279.635.6a45.761,45.761,0,0,1-5.929,8.218,32.493,32.493,0,0,1-7.032,5.813,40.243,40.243,0,0,1,6.547,9.487,47.3,47.3,0,0,0,9.844-9.279A60.944,60.944,0,0,0,860.483,495a90.921,90.921,0,0,0,5.5-16.042,142.915,142.915,0,0,0,3.3-19.5l-6.413-1.47-2,.267h-7.616c.638-2.68,1.156-5.357,1.737-8.552l-5.078-.935A61.758,61.758,0,0,0,864.074,433v19.375h12.961V432.333a83.606,83.606,0,0,0,15.633,16.97h-8.15v11.49H870.087v11.625h14.431v14.564H877.7c.707-3.536,1.382-7.537,2-11.892l-10.155-.8a234.994,234.994,0,0,1-3.875,24.719h5.211v.133h13.629V517.18h11.224V499.141h6.948V486.982h-6.948V472.418h5.879V460.793h-5.879V449.3h-.4a67.938,67.938,0,0,1,8.284-8.952,71.97,71.97,0,0,1-17.771-13.362h13.763V414.562h-9.487c1.791-2.644,3.767-5.868,5.86-9.281l.007-.012c1.2-1.965,2.45-4,3.754-6.073l-12.293-4.542a98.949,98.949,0,0,1-7.483,16.167l8.685,3.741H877.035V392.515H864.074v22.046H852.717l8.15-3.474a58.7,58.7,0,0,0-8.284-15.5l-10.288,4.276a64.522,64.522,0,0,1,7.348,14.7H841.36v12.426h13.9a54.22,54.22,0,0,1-17.1,14.03V426.187H822.786v-6.948h-8.952v6.948h-5.478v-6.948H799.27v6.948h-5.344v-8.819h45.028v-12.56h-18.84a73.194,73.194,0,0,0-5.879-12.828l-12.426,3.341c1.314,2.76,2.639,6.191,3.875,9.487ZM720.1,486.581h0a58.511,58.511,0,0,1-16.835,21.912,82.642,82.642,0,0,1,10.956,9.22A76.07,76.07,0,0,0,724.772,505.6a82.577,82.577,0,0,0,8.552-15.015L720.1,486.581Zm30.6-.8h0l-11.758,6.146c5.573,7.646,12.4,18.38,15.1,25.12L766.46,510.1c-3.134-6.813-10.451-17.358-15.766-24.318ZM647.141,404.674v53.848c0,8.4-.119,17.358-.986,25.988-1.016,10.115-2.879,18.092-5.7,24.385a42.654,42.654,0,0,1,9.621,6.547c3.111-6.462,5.388-15.312,6.764-26.305a246.633,246.633,0,0,0,1.654-28.611H703.26v-34.74h-15.5V417.5h16.168V404.674H685.623a79.028,79.028,0,0,0-4.944-12.694l-14.431,3.073c1.226,3,2.309,6.546,3.207,9.62Zm591.886-11.38a44.181,44.181,0,0,0-16.34,2.994,37.226,37.226,0,0,0-21.181,21.181,44.183,44.183,0,0,0-2.994,16.34v40.031a44.184,44.184,0,0,0,2.994,16.341,37.223,37.223,0,0,0,21.181,21.181,46.09,46.09,0,0,0,32.681,0,37.223,37.223,0,0,0,21.181-21.181,44.184,44.184,0,0,0,2.994-16.341V433.81a44.183,44.183,0,0,0-2.994-16.34,37.226,37.226,0,0,0-21.181-21.181A44.183,44.183,0,0,0,1239.027,393.295Zm-90.177,0a44.184,44.184,0,0,0-16.341,2.994,37.225,37.225,0,0,0-21.181,21.181,44.183,44.183,0,0,0-2.994,16.34v40.031a44.184,44.184,0,0,0,2.994,16.341,37.222,37.222,0,0,0,21.181,21.181,46.092,46.092,0,0,0,32.681,0,37.223,37.223,0,0,0,21.181-21.181,44.184,44.184,0,0,0,2.994-16.341V433.81a44.183,44.183,0,0,0-2.994-16.34,37.226,37.226,0,0,0-21.181-21.181A44.183,44.183,0,0,0,1148.85,393.295Zm-90.177,0a44.183,44.183,0,0,0-16.341,2.994,37.226,37.226,0,0,0-21.181,21.181,44.183,44.183,0,0,0-2.994,16.34v40.031a44.184,44.184,0,0,0,2.994,16.341,37.223,37.223,0,0,0,21.181,21.181,46.091,46.091,0,0,0,32.681,0,37.223,37.223,0,0,0,21.181-21.181,44.184,44.184,0,0,0,2.994-16.341V433.81a44.183,44.183,0,0,0-2.994-16.34,37.226,37.226,0,0,0-21.181-21.181A44.183,44.183,0,0,0,1058.673,393.295ZM948.48,489.014l-12.429,11.622a38.275,38.275,0,0,0,14.023,10.31,43.536,43.536,0,0,0,17.292,3.41,45.614,45.614,0,0,0,16.857-3.07,37.969,37.969,0,0,0,13.165-8.653,38.722,38.722,0,0,0,8.565-13.4,48.086,48.086,0,0,0,3.057-17.324V434.94a44.987,44.987,0,0,0-3.075-16.629,39.616,39.616,0,0,0-8.446-13.133,39.118,39.118,0,0,0-28.348-11.723c-22.073,0-40.031,17.451-40.031,38.9a38.552,38.552,0,0,0,10.714,27.3,35.834,35.834,0,0,0,11.962,8.043,39.336,39.336,0,0,0,15.095,2.913,34.513,34.513,0,0,0,13.458-2.744,36.628,36.628,0,0,0,11.4-7.586V474a25.112,25.112,0,0,1-1.766,9.281A24.387,24.387,0,0,1,985,491.112a23.413,23.413,0,0,1-7.7,5.408,24.729,24.729,0,0,1-9.937,2.018,23.476,23.476,0,0,1-10.593-2.583A24.041,24.041,0,0,1,948.48,489.014ZM678.942,507.158h0a41.3,41.3,0,0,1,2.406,6.68c2.019-1.75,6.005-3.292,22.447-8.685a66.28,66.28,0,0,1-.935-10.823L692.437,497.4V484.978h9.086V473.486h-9.086V463.065H681.881v32.6a8.165,8.165,0,0,1-2.806,6.681,46.448,46.448,0,0,1-.134-6.013l-7.214,1.737V484.978h8.016V473.486h-8.016V462.53H661.3V495.4c0,5.027-2.07,6.853-3.875,7.883a33.619,33.619,0,0,1,4.142,9.754l.134.8c1.718-1.454,4.974-2.949,17.236-6.681h0Zm27.525-35.274v13.629h60.395V471.884h-8.685V423.247h7.616V410.019h-7.616v-17.37h-13.5v17.37h-16.97v-17.37H714.617v17.37h-7.75v13.227h7.75v48.637Zm532.561,26.331a23.147,23.147,0,0,1-23.244-23.244V432.68a23.356,23.356,0,0,1,6.779-16.606,23.333,23.333,0,0,1,32.929,0,23.357,23.357,0,0,1,6.779,16.606v42.29a23.147,23.147,0,0,1-23.243,23.244Zm-90.177,0a23.147,23.147,0,0,1-23.244-23.244V432.68a23.358,23.358,0,0,1,6.779-16.606,23.333,23.333,0,0,1,32.928,0,23.357,23.357,0,0,1,6.779,16.606v42.29a23.147,23.147,0,0,1-23.243,23.244Zm-90.177,0a23.147,23.147,0,0,1-23.244-23.244V432.68a23.356,23.356,0,0,1,6.78-16.606,23.333,23.333,0,0,1,32.929,0,23.357,23.357,0,0,1,6.779,16.606v42.29a23.147,23.147,0,0,1-23.244,23.244ZM744.681,471.884h-16.97V463.6h16.97v8.284Zm224.3-16.605a22.867,22.867,0,0,1-22.759-22.921,22.275,22.275,0,0,1,6.739-16.02,22.864,22.864,0,0,1,7.289-4.817,23.116,23.116,0,0,1,8.893-1.76,22.335,22.335,0,0,1,8.842,1.806,22.818,22.818,0,0,1,11.995,12.086,22.308,22.308,0,0,1,1.76,8.706A22.867,22.867,0,0,1,968.98,455.279Zm-224.3-4.106h-16.97V443.29h16.97v7.882Zm83.451-2.137h-5.345V437.677h5.345v11.357Zm-14.3,0h-5.478V437.677h5.478v11.357Zm-14.564,0h-5.344V437.677h5.344v11.357ZM693.239,448.9H687.76V437.41h5.478V448.9Zm-14.431,0h-5.745V437.41h5.745V448.9Zm-14.831,0H658.5V437.41h5.478V448.9Zm80.7-17.9h-16.97v-7.75h16.97V431Zm-65.873-5.211h-5.745V417.5h5.745v8.283Zm-14.831,0H658.5V417.5h5.478v8.283Z"/>
</svg>
