<svg xmlns="http://www.w3.org/2000/svg" width="241.323" height="263.992" viewBox="0 0 241.323 263.992">
  <g id="组_46037" data-name="组 46037" transform="translate(-278.427 -550.575)">
    <g id="组_3651" data-name="组 3651" transform="translate(-417.281 434.285)">
      <path id="路径_683" data-name="路径 683" d="M799.522,144.043c.64-14.631,10.807-33.048,29.1-33.048,7.6,0,33.444,9.036,33.444,76.072,0,46.753-20.053,67.867-33.444,67.867-11.167,0-17.3-2.177-24.5-10.181" transform="translate(1.288 6.546)" fill="none" stroke="#000" stroke-linecap="round" stroke-linejoin="round" stroke-miterlimit="10" stroke-width="2.5"/>
      <path id="路径_684" data-name="路径 684" d="M792.3,138.678l3.594,14.087,10.153-9.215" transform="translate(4 -1.373)" fill="none" stroke="#000" stroke-linecap="round" stroke-linejoin="round" stroke-miterlimit="10" stroke-width="2.5"/>
    </g>
    <g id="组_42097" data-name="组 42097" transform="translate(-621 -23009.84)">
      <g id="组_35493" data-name="组 35493" transform="translate(901 23741.309)">
        <path id="路径_8099" data-name="路径 8099" d="M2268.142,668.236a17.791,17.791,0,0,1,11.385-2.222,3.656,3.656,0,0,1,1.478.458,2.761,2.761,0,0,1,.906,3.07,7.725,7.725,0,0,1-1.849,2.855c-2.321,2.6-4.893,5.183-8.194,6.3a9.709,9.709,0,0,1,5.307.388,4.579,4.579,0,0,1,2.922,4.141,5.642,5.642,0,0,1-2.782,4.083c-2.515,1.722-5.882,2.505-8.655,1.241" transform="translate(-2268.142 -658.992)" fill="none" stroke="#000" stroke-linecap="round" stroke-linejoin="round" stroke-miterlimit="10" stroke-width="2.3"/>
        <path id="路径_8100" data-name="路径 8100" d="M2304.163,666.661a43.924,43.924,0,0,0-4.883,14.091,13.387,13.387,0,0,0-.157,4.376,5.654,5.654,0,0,0,2.138,3.714c1.912,1.353,4.607.931,6.662-.2a6.756,6.756,0,0,0,2.878-2.732,3.735,3.735,0,0,0-.151-3.825c-1.25-1.7-3.773-1.606-5.865-1.34-1.845.234-3.791.509-5.256,1.655" transform="translate(-2281.5 -659.348)" fill="none" stroke="#000" stroke-linecap="round" stroke-linejoin="round" stroke-miterlimit="10" stroke-width="2.3"/>
        <path id="路径_8101" data-name="路径 8101" d="M2334.733,670.532c-1.946-.255-3.49,1.606-4.332,3.379a19.732,19.732,0,0,0-1.8,10.366,8.543,8.543,0,0,0,1.179,3.883,5.6,5.6,0,0,0,6.454,2.094c2.859-1.08,4.271-4.3,4.836-7.309a13.215,13.215,0,0,0-.483-7.67,6.793,6.793,0,0,0-5.978-4.289" transform="translate(-2294.271 -661.013)" fill="none" stroke="#000" stroke-linecap="round" stroke-linejoin="round" stroke-miterlimit="10" stroke-width="2.3"/>
        <path id="路径_8102" data-name="路径 8102" d="M2351.364,662.538a.939.939,0,0,1-1.007-.543,2.483,2.483,0,0,1-.178-1.212,4,4,0,0,1,.583-2.242,2.378,2.378,0,0,1,3.24-.453,2.485,2.485,0,0,1,.5,3.266,2.6,2.6,0,0,1-3.243.781" transform="translate(-2303.65 -655.445)" fill="none" stroke="#000" stroke-linecap="round" stroke-linejoin="round" stroke-miterlimit="10" stroke-width="2.3"/>
        <path id="路径_8103" data-name="路径 8103" d="M2376.4,657.128a8.079,8.079,0,0,1,2.865,1.225,2.754,2.754,0,0,1,1.124,2.738,3.66,3.66,0,0,1-1.042,1.553,18.737,18.737,0,0,1-2.882,2.379c.955,1.053,2.88,1.262,3.2,2.647a2.011,2.011,0,0,1-.544,1.734,5.945,5.945,0,0,1-1.521,1.107l-2.661,1.535" transform="translate(-2314.37 -655.221)" fill="none" stroke="#000" stroke-linecap="round" stroke-linejoin="round" stroke-miterlimit="10" stroke-width="2.3"/>
        <path id="路径_8104" data-name="路径 8104" d="M2372.246,670.748q.191,11.84-.181,23.681" transform="translate(-2313.125 -661.117)" fill="none" stroke="#000" stroke-linecap="round" stroke-miterlimit="10" stroke-width="2.3"/>
        <path id="路径_8105" data-name="路径 8105" d="M2400.033,653.766a10.838,10.838,0,0,0-1.234,2.288.533.533,0,0,0-.047.377c.069.182.3.234.49.253,2.078.213,4.2-.264,6.256.1a.474.474,0,0,1,.265.108c.162.165.023.439-.117.622l-2.851,3.709" transform="translate(-2324.668 -653.766)" fill="none" stroke="#000" stroke-linecap="round" stroke-linejoin="round" stroke-miterlimit="10" stroke-width="2.3"/>
        <path id="路径_8106" data-name="路径 8106" d="M2394,672.8a19.281,19.281,0,0,1,10.281-.6,1.888,1.888,0,0,1,1.083.512,1.468,1.468,0,0,1,.3.842,5.348,5.348,0,0,1-.88,2.873q-1.306,2.412-2.819,4.7" transform="translate(-2322.618 -661.558)" fill="none" stroke="#000" stroke-linecap="round" stroke-linejoin="round" stroke-miterlimit="10" stroke-width="2.3"/>
        <path id="路径_8107" data-name="路径 8107" d="M2389.75,683.509l11.328-3.593" transform="translate(-2320.78 -665.085)" fill="none" stroke="#000" stroke-linecap="round" stroke-miterlimit="10" stroke-width="2.3"/>
        <path id="路径_8108" data-name="路径 8108" d="M2393.229,692a40.712,40.712,0,0,1,7.815-3.223" transform="translate(-2322.286 -668.922)" fill="none" stroke="#000" stroke-linecap="round" stroke-miterlimit="10" stroke-width="2.3"/>
        <path id="路径_8109" data-name="路径 8109" d="M2388.37,700a24.826,24.826,0,0,0-1.164,6.661" transform="translate(-2319.679 -673.78)" fill="none" stroke="#000" stroke-linecap="round" stroke-miterlimit="10" stroke-width="2.3"/>
        <path id="路径_8110" data-name="路径 8110" d="M2395.749,699.791c.956,2.935,3.913,4.815,6.909,5.56a5.022,5.022,0,0,0,1.909.182,2.966,2.966,0,0,0-.126-5.887l7.348-3.076" transform="translate(-2323.377 -672.294)" fill="none" stroke="#000" stroke-linecap="round" stroke-linejoin="round" stroke-miterlimit="10" stroke-width="2.3"/>
        <path id="路径_8111" data-name="路径 8111" d="M2455.373,655.3a15.616,15.616,0,0,1-9.69,3.317,56.335,56.335,0,0,1-.028,16.639" transform="translate(-2344.979 -654.429)" fill="none" stroke="#000" stroke-linecap="round" stroke-linejoin="round" stroke-miterlimit="10" stroke-width="2.3"/>
        <path id="路径_8112" data-name="路径 8112" d="M2446.428,667.877a21.021,21.021,0,0,1,9.959-1.869,1.128,1.128,0,0,1,.668.188,1.168,1.168,0,0,1,.292.891q.471,12.812.943,25.623l-3.582-.98" transform="translate(-2345.314 -659.049)" fill="none" stroke="#000" stroke-linecap="round" stroke-linejoin="round" stroke-miterlimit="10" stroke-width="2.3"/>
        <path id="路径_8113" data-name="路径 8113" d="M2446.523,676.28q4.148-1.585,8.361-2.989" transform="translate(-2345.355 -662.217)" fill="none" stroke="#000" stroke-linecap="round" stroke-miterlimit="10" stroke-width="2.3"/>
        <path id="路径_8114" data-name="路径 8114" d="M2448.023,684.165q3.621-.537,7.2-1.3" transform="translate(-2346.004 -666.361)" fill="none" stroke="#000" stroke-linecap="round" stroke-miterlimit="10" stroke-width="2.3"/>
        <path id="路径_8115" data-name="路径 8115" d="M2433.484,692.549c6.974.261,13.731-2.187,20.279-4.6" transform="translate(-2339.71 -668.562)" fill="none" stroke="#000" stroke-linecap="round" stroke-miterlimit="10" stroke-width="2.3"/>
        <path id="路径_8116" data-name="路径 8116" d="M2461.375,678.374a69.874,69.874,0,0,1-22.33,19.4" transform="translate(-2342.118 -664.418)" fill="none" stroke="#000" stroke-linecap="round" stroke-miterlimit="10" stroke-width="2.3"/>
        <path id="路径_8117" data-name="路径 8117" d="M2490.635,656.036a12.635,12.635,0,0,1-1.377,3.772,36.79,36.79,0,0,0,5.5-.745.7.7,0,0,1,.452,0c.281.135.252.542.167.842a10.683,10.683,0,0,1-2.175,4.028" transform="translate(-2361.949 -654.749)" fill="none" stroke="#000" stroke-linecap="round" stroke-linejoin="round" stroke-miterlimit="10" stroke-width="2.3"/>
        <path id="路径_8118" data-name="路径 8118" d="M2487.869,673.251a64.738,64.738,0,0,1-1.458,19.271" transform="translate(-2360.717 -662.2)" fill="none" stroke="#000" stroke-linecap="round" stroke-miterlimit="10" stroke-width="2.3"/>
        <path id="路径_8119" data-name="路径 8119" d="M2489.318,672.534a27.422,27.422,0,0,1,8.851-2.114,1.292,1.292,0,0,1,.711.09c.387.212.459.728.485,1.169q.631,10.722.723,21.467l-3.021-1.109" transform="translate(-2361.975 -660.97)" fill="none" stroke="#000" stroke-linecap="round" stroke-linejoin="round" stroke-miterlimit="10" stroke-width="2.3"/>
        <path id="路径_8120" data-name="路径 8120" d="M2490.475,684.642a56.234,56.234,0,0,0,7.074-2.994" transform="translate(-2362.476 -665.835)" fill="none" stroke="#000" stroke-linecap="round" stroke-miterlimit="10" stroke-width="2.3"/>
        <path id="路径_8121" data-name="路径 8121" d="M2490.975,694.259a27,27,0,0,0,7.378-2.785" transform="translate(-2362.692 -670.088)" fill="none" stroke="#000" stroke-linecap="round" stroke-miterlimit="10" stroke-width="2.3"/>
        <path id="路径_8122" data-name="路径 8122" d="M2497.377,674.744q.393,8.147.045,16.308" transform="translate(-2365.463 -662.846)" fill="none" stroke="#000" stroke-linecap="round" stroke-miterlimit="10" stroke-width="2.3"/>
        <path id="路径_8123" data-name="路径 8123" d="M2511.028,676.487a31.22,31.22,0,0,1,2.307,6.944" transform="translate(-2371.372 -663.601)" fill="none" stroke="#000" stroke-linecap="round" stroke-miterlimit="10" stroke-width="2.3"/>
        <path id="路径_8124" data-name="路径 8124" d="M2513.51,675.061a30.683,30.683,0,0,1,10.371-2.919c.327-.032.719-.031.907.238a.9.9,0,0,1,.1.58,8.584,8.584,0,0,1-1.371,4.17" transform="translate(-2372.446 -661.714)" fill="none" stroke="#000" stroke-linecap="round" stroke-linejoin="round" stroke-miterlimit="10" stroke-width="2.3"/>
        <path id="路径_8125" data-name="路径 8125" d="M2514.875,686.373a33.734,33.734,0,0,1,8.411-4.018" transform="translate(-2373.037 -666.141)" fill="none" stroke="#000" stroke-linecap="round" stroke-miterlimit="10" stroke-width="2.3"/>
        <path id="路径_8126" data-name="路径 8126" d="M2522.22,664.216a78.36,78.36,0,0,1,.459,20.3" transform="translate(-2376.217 -658.289)" fill="none" stroke="#000" stroke-linecap="round" stroke-miterlimit="10" stroke-width="2.3"/>
        <path id="路径_8127" data-name="路径 8127" d="M2514.235,699.228a35.233,35.233,0,0,0,12.648-6.179" transform="translate(-2372.76 -670.77)" fill="none" stroke="#000" stroke-linecap="round" stroke-miterlimit="10" stroke-width="2.3"/>
        <path id="路径_8128" data-name="路径 8128" d="M2535.437,688.162a53.249,53.249,0,0,1,3.519,9.99" transform="translate(-2381.938 -668.654)" fill="none" stroke="#000" stroke-linecap="round" stroke-miterlimit="10" stroke-width="2.3"/>
        <path id="路径_8129" data-name="路径 8129" d="M2546.772,670.576a76.356,76.356,0,0,0,9.245-2.35" transform="translate(-2384.94 -660.025)" fill="none" stroke="#000" stroke-linecap="round" stroke-miterlimit="10" stroke-width="2.3"/>
        <path id="路径_8130" data-name="路径 8130" d="M2553.172,662.488a151.842,151.842,0,0,1,.383,24.942,27.789,27.789,0,0,0-4.261-3.561" transform="translate(-2386.032 -657.541)" fill="none" stroke="#000" stroke-linecap="round" stroke-linejoin="round" stroke-miterlimit="10" stroke-width="2.3"/>
        <path id="路径_8131" data-name="路径 8131" d="M2548.094,690.818q3.885-3.2,7.58-6.612" transform="translate(-2385.512 -666.942)" fill="none" stroke="#000" stroke-linecap="round" stroke-miterlimit="10" stroke-width="2.3"/>
        <path id="路径_8132" data-name="路径 8132" d="M2576,655.489l5.38,1.726" transform="translate(-2397.593 -654.512)" fill="none" stroke="#000" stroke-linecap="round" stroke-miterlimit="10" stroke-width="2.3"/>
        <path id="路径_8133" data-name="路径 8133" d="M2569.568,667.739a18.912,18.912,0,0,1,.065,5.814" transform="translate(-2394.808 -659.814)" fill="none" stroke="#000" stroke-linecap="round" stroke-miterlimit="10" stroke-width="2.3"/>
        <path id="路径_8134" data-name="路径 8134" d="M2571.562,667.742l7.583-2.653a15.474,15.474,0,0,1,5.338-1.181l-2.009,4.319" transform="translate(-2395.67 -658.155)" fill="none" stroke="#000" stroke-linecap="round" stroke-linejoin="round" stroke-miterlimit="10" stroke-width="2.3"/>
        <path id="路径_8135" data-name="路径 8135" d="M2572.789,677a31.157,31.157,0,0,1-5.5,9.094" transform="translate(-2393.819 -663.821)" fill="none" stroke="#000" stroke-linecap="round" stroke-miterlimit="10" stroke-width="2.3"/>
        <path id="路径_8136" data-name="路径 8136" d="M2582.862,676.814a30.158,30.158,0,0,0,7.026,3.083" transform="translate(-2400.562 -663.742)" fill="none" stroke="#000" stroke-linecap="round" stroke-miterlimit="10" stroke-width="2.3"/>
        <path id="路径_8137" data-name="路径 8137" d="M2573.991,691.972q4.841-1.6,9.533-3.605" transform="translate(-2396.722 -668.743)" fill="none" stroke="#000" stroke-linecap="round" stroke-miterlimit="10" stroke-width="2.3"/>
        <path id="路径_8138" data-name="路径 8138" d="M2583.68,693.243a25.727,25.727,0,0,1-.149,8.656" transform="translate(-2400.851 -670.854)" fill="none" stroke="#000" stroke-linecap="round" stroke-miterlimit="10" stroke-width="2.3"/>
        <path id="路径_8139" data-name="路径 8139" d="M2569.68,710.52a42.274,42.274,0,0,1,17.2-2.2" transform="translate(-2394.856 -677.322)" fill="none" stroke="#000" stroke-linecap="round" stroke-miterlimit="10" stroke-width="2.3"/>
        <path id="路径_8140" data-name="路径 8140" d="M2608.8,659a51.073,51.073,0,0,1-3.269,13.615" transform="translate(-2408.469 -656.033)" fill="none" stroke="#000" stroke-linecap="round" stroke-miterlimit="10" stroke-width="2.3"/>
        <path id="路径_8141" data-name="路径 8141" d="M2610.263,668.219q1.952-.925,3.963-1.716" transform="translate(-2410.519 -659.279)" fill="none" stroke="#000" stroke-linecap="round" stroke-miterlimit="10" stroke-width="2.3"/>
        <path id="路径_8142" data-name="路径 8142" d="M2608.753,678.924a14.44,14.44,0,0,0,4.125-1.115" transform="translate(-2409.865 -664.173)" fill="none" stroke="#000" stroke-linecap="round" stroke-miterlimit="10" stroke-width="2.3"/>
        <path id="路径_8143" data-name="路径 8143" d="M2608.039,690.4a13.548,13.548,0,0,0,5.371-2.64" transform="translate(-2409.556 -668.481)" fill="none" stroke="#000" stroke-linecap="round" stroke-miterlimit="10" stroke-width="2.3"/>
        <path id="路径_8144" data-name="路径 8144" d="M2612.326,682.494l1.123,15.169a14.676,14.676,0,0,0,3.226-3.544" transform="translate(-2411.411 -666.201)" fill="none" stroke="#000" stroke-linecap="round" stroke-linejoin="round" stroke-miterlimit="10" stroke-width="2.3"/>
        <path id="路径_8145" data-name="路径 8145" d="M2625.951,665.725c.634,1.523,2.814,2.1,3.119,3.726a3.8,3.8,0,0,1-.781,2.536l-1.719,2.871a1.021,1.021,0,0,0-.19.5c0,.4.433.64.77.862a4.077,4.077,0,0,1,1.462,4.1,11.977,11.977,0,0,1-1.9,4.162l-2.536,4.081" transform="translate(-2416.542 -658.943)" fill="none" stroke="#000" stroke-linecap="round" stroke-linejoin="round" stroke-miterlimit="10" stroke-width="2.3"/>
        <path id="路径_8146" data-name="路径 8146" d="M2622.435,694.486a47.69,47.69,0,0,0,22.284,8.357" transform="translate(-2415.787 -671.392)" fill="none" stroke="#000" stroke-linecap="round" stroke-miterlimit="10" stroke-width="2.3"/>
        <path id="路径_8147" data-name="路径 8147" d="M2639.941,661.773a13.49,13.49,0,0,1,7.866-.861.812.812,0,0,1,.368.138.8.8,0,0,1,.229.516,14.32,14.32,0,0,1-.36,4.959" transform="translate(-2423.364 -656.755)" fill="none" stroke="#000" stroke-linecap="round" stroke-linejoin="round" stroke-miterlimit="10" stroke-width="2.3"/>
        <path id="路径_8148" data-name="路径 8148" d="M2638,668.892l13.292-6.034" transform="translate(-2422.524 -657.701)" fill="none" stroke="#000" stroke-linecap="round" stroke-miterlimit="10" stroke-width="2.3"/>
        <path id="路径_8149" data-name="路径 8149" d="M2641.96,675.978a64.353,64.353,0,0,1,6.85-2.871" transform="translate(-2424.239 -662.138)" fill="none" stroke="#000" stroke-linecap="round" stroke-miterlimit="10" stroke-width="2.3"/>
        <path id="路径_8150" data-name="路径 8150" d="M2647.6,656.256q.515,12.752.438,25.519" transform="translate(-2426.682 -654.844)" fill="none" stroke="#000" stroke-linecap="round" stroke-miterlimit="10" stroke-width="2.3"/>
        <path id="路径_8151" data-name="路径 8151" d="M2641.746,686.262a19.292,19.292,0,0,0,6.673-2.243" transform="translate(-2424.146 -666.861)" fill="none" stroke="#000" stroke-linecap="round" stroke-miterlimit="10" stroke-width="2.3"/>
        <path id="路径_8152" data-name="路径 8152" d="M2638.262,693.22a83.829,83.829,0,0,0,10.906-2.746" transform="translate(-2422.637 -669.655)" fill="none" stroke="#000" stroke-linecap="round" stroke-miterlimit="10" stroke-width="2.3"/>
        <path id="路径_8153" data-name="路径 8153" d="M2700.887,664.229l9.108-3.3a74.276,74.276,0,0,1-12,25.562" transform="translate(-2694.434 -606.098)" fill="none" stroke="#000" stroke-linecap="round" stroke-linejoin="round" stroke-miterlimit="10" stroke-width="2.3"/>
        <path id="路径_8154" data-name="路径 8154" d="M2702.095,676.7a30.678,30.678,0,0,0,6.4,7.27,8.071,8.071,0,0,1,2.415,2.584" transform="translate(-2696.208 -612.924)" fill="none" stroke="#000" stroke-linecap="round" stroke-linejoin="round" stroke-miterlimit="10" stroke-width="2.3"/>
        <path id="路径_8155" data-name="路径 8155" d="M2727.456,660.232a58.371,58.371,0,0,1,11.157-1.965A88.872,88.872,0,0,1,2727,682.882" transform="translate(-2706.987 -604.947)" fill="none" stroke="#000" stroke-linecap="round" stroke-linejoin="round" stroke-miterlimit="10" stroke-width="2.3"/>
        <path id="路径_8156" data-name="路径 8156" d="M2725.367,671.943a52.81,52.81,0,0,0,17.684,20.336" transform="translate(-2706.281 -610.867)" fill="none" stroke="#000" stroke-linecap="round" stroke-miterlimit="10" stroke-width="2.3"/>
        <path id="路径_8157" data-name="路径 8157" d="M2770.506,663.982a74.43,74.43,0,0,0,17.439-3.716" transform="translate(-2725.82 -605.812)" fill="none" stroke="#000" stroke-linecap="round" stroke-miterlimit="10" stroke-width="2.3"/>
        <path id="路径_8158" data-name="路径 8158" d="M2764.025,678.856a156.131,156.131,0,0,0,26.221-5.083" transform="translate(-2723.014 -611.659)" fill="none" stroke="#000" stroke-linecap="round" stroke-miterlimit="10" stroke-width="2.3"/>
        <path id="路径_8159" data-name="路径 8159" d="M2785.048,653.741a90.529,90.529,0,0,1,.481,29.2" transform="translate(-2732.114 -602.988)" fill="none" stroke="#000" stroke-linecap="round" stroke-miterlimit="10" stroke-width="2.3"/>
        <path id="路径_8160" data-name="路径 8160" d="M2770.233,693.018l-.411,7.587a1.428,1.428,0,0,0,.18.968,1.354,1.354,0,0,0,1.11.365,20.185,20.185,0,0,0,8.821-2.558,63.243,63.243,0,0,1,8.378-3.939" transform="translate(-2725.52 -619.989)" fill="none" stroke="#000" stroke-linecap="round" stroke-linejoin="round" stroke-miterlimit="10" stroke-width="2.3"/>
        <path id="路径_8161" data-name="路径 8161" d="M2802.383,688.766a41.541,41.541,0,0,0,2.215,8.916" transform="translate(-2739.618 -618.149)" fill="none" stroke="#000" stroke-linecap="round" stroke-miterlimit="10" stroke-width="2.3"/>
        <path id="路径_8162" data-name="路径 8162" d="M2819.56,668.939a58.079,58.079,0,0,0,13.837-7.5" transform="translate(-2745.149 -606.321)" fill="none" stroke="#000" stroke-linecap="round" stroke-miterlimit="10" stroke-width="2.3"/>
        <path id="路径_8163" data-name="路径 8163" d="M2828.63,658.489a36.867,36.867,0,0,1-.044,12.842c-.589,3.258-1.622,6.473-1.591,9.784a21.726,21.726,0,0,0,9.031-7.058" transform="translate(-2748.367 -605.043)" fill="none" stroke="#000" stroke-linecap="round" stroke-linejoin="round" stroke-miterlimit="10" stroke-width="2.3"/>
        <path id="路径_8164" data-name="路径 8164" d="M2850.122,662.734l11.919-2.959a56.257,56.257,0,0,1-1.566,12.6l-2.379,11.786c-.058.286-.15.616-.42.725a.891.891,0,0,1-.8-.227,21.343,21.343,0,0,1-2.823-2.382" transform="translate(-2758.378 -605.6)" fill="none" stroke="#000" stroke-linecap="round" stroke-linejoin="round" stroke-miterlimit="10" stroke-width="2.3"/>
        <path id="路径_8165" data-name="路径 8165" d="M2849.93,666.007a42.423,42.423,0,0,1-8.035,20.653" transform="translate(-2754.817 -608.297)" fill="none" stroke="#000" stroke-linecap="round" stroke-miterlimit="10" stroke-width="2.3"/>
        <path id="路径_8166" data-name="路径 8166" d="M2881.288,665.639a43.4,43.4,0,0,0,8.756-2.7" transform="translate(-2769.012 -606.971)" fill="none" stroke="#000" stroke-linecap="round" stroke-miterlimit="10" stroke-width="2.3"/>
        <path id="路径_8167" data-name="路径 8167" d="M2886.947,658.25q.1,12.3-.3,24.6a25.22,25.22,0,0,0-3.682-2.736" transform="translate(-2769.738 -604.94)" fill="none" stroke="#000" stroke-linecap="round" stroke-linejoin="round" stroke-miterlimit="10" stroke-width="2.3"/>
        <path id="路径_8168" data-name="路径 8168" d="M2879.021,686.314a31.759,31.759,0,0,0,8.488-7.823" transform="translate(-2768.031 -613.701)" fill="none" stroke="#000" stroke-linecap="round" stroke-miterlimit="10" stroke-width="2.3"/>
        <path id="路径_8169" data-name="路径 8169" d="M2909.87,652a25.861,25.861,0,0,1-4.083,5.986c2.892-.869,5.733-1.9,8.573-2.923a18.125,18.125,0,0,1-4.36,6.417" transform="translate(-2779.617 -602.234)" fill="none" stroke="#000" stroke-linecap="round" stroke-linejoin="round" stroke-miterlimit="10" stroke-width="2.3"/>
        <path id="路径_8170" data-name="路径 8170" d="M2900.94,673.9q1.626,3.23,2.947,6.6" transform="translate(-2777.519 -611.715)" fill="none" stroke="#000" stroke-linecap="round" stroke-miterlimit="10" stroke-width="2.3"/>
        <path id="路径_8171" data-name="路径 8171" d="M2904.1,673.774a27.343,27.343,0,0,1,11.945-3.787.757.757,0,0,1,.912,1.039,17.9,17.9,0,0,1-1.264,5.072" transform="translate(-2778.888 -610.016)" fill="none" stroke="#000" stroke-linecap="round" stroke-linejoin="round" stroke-miterlimit="10" stroke-width="2.3"/>
        <path id="路径_8172" data-name="路径 8172" d="M2897.27,685.6a85.471,85.471,0,0,0,17.466-6.21" transform="translate(-2775.93 -614.088)" fill="none" stroke="#000" stroke-linecap="round" stroke-miterlimit="10" stroke-width="2.3"/>
        <path id="路径_8173" data-name="路径 8173" d="M2909.869,673.993a56.693,56.693,0,0,1-5.659,19.2" transform="translate(-2778.934 -611.754)" fill="none" stroke="#000" stroke-linecap="round" stroke-miterlimit="10" stroke-width="2.3"/>
        <path id="路径_8174" data-name="路径 8174" d="M2913.044,687.947a21.394,21.394,0,0,1,2.764,3.649,21.855,21.855,0,0,0,9.581,7.638" transform="translate(-2782.758 -617.794)" fill="none" stroke="#000" stroke-linecap="round" stroke-linejoin="round" stroke-miterlimit="10" stroke-width="2.3"/>
        <path id="路径_8210" data-name="路径 8210" d="M2676.021,698.774a3.422,3.422,0,0,1,1.14,2.448,3.367,3.367,0,0,1-.484,1.213l-1.608,2.871" transform="translate(-2438.57 -673.248)" fill="none" stroke="#000" stroke-linecap="round" stroke-linejoin="round" stroke-miterlimit="10" stroke-width="2.3"/>
      </g>
      <g id="组_42095" data-name="组 42095" transform="translate(1051.652 23792.473)">
        <path id="路径_11999" data-name="路径 11999" d="M303.722,426.169a16.918,16.918,0,0,1-2.376,5.415,18.858,18.858,0,0,0,8.862-4.953" transform="translate(-300.614 -425.531)" fill="none" stroke="#000" stroke-linecap="round" stroke-linejoin="round" stroke-miterlimit="10" stroke-width="2.3"/>
        <path id="路径_12000" data-name="路径 12000" d="M310.633,435.028l2.382,2.93" transform="translate(-305.483 -430.175)" fill="none" stroke="#000" stroke-linecap="round" stroke-miterlimit="10" stroke-width="2.3"/>
        <path id="路径_12001" data-name="路径 12001" d="M328.086,426a7.266,7.266,0,0,1-1.764,4.487,53.56,53.56,0,0,0,8.306-4.321" transform="translate(-313.708 -425.443)" fill="none" stroke="#000" stroke-linecap="round" stroke-linejoin="round" stroke-miterlimit="10" stroke-width="2.3"/>
        <path id="路径_12002" data-name="路径 12002" d="M334.517,432.489l1.991,3.246" transform="translate(-318.005 -428.844)" fill="none" stroke="#000" stroke-linecap="round" stroke-miterlimit="10" stroke-width="2.3"/>
        <path id="路径_12003" data-name="路径 12003" d="M310.669,447.453a48.406,48.406,0,0,0,10.4-3.228" transform="translate(-305.502 -434.997)" fill="none" stroke="#000" stroke-linecap="round" stroke-miterlimit="10" stroke-width="2.3"/>
        <path id="路径_12004" data-name="路径 12004" d="M308.516,459.628a35.721,35.721,0,0,0,10.692-3.313" transform="translate(-304.373 -441.336)" fill="none" stroke="#000" stroke-linecap="round" stroke-miterlimit="10" stroke-width="2.3"/>
        <path id="路径_12005" data-name="路径 12005" d="M299.807,470.9a53.358,53.358,0,0,0,20.57-6.174" transform="translate(-299.807 -445.748)" fill="none" stroke="#000" stroke-linecap="round" stroke-miterlimit="10" stroke-width="2.3"/>
        <path id="路径_12006" data-name="路径 12006" d="M319.363,450.665l.092,11.164a6.646,6.646,0,0,0,.643,3.418,5.436,5.436,0,0,0,4.02,2.164,14.183,14.183,0,0,0,6.166-.468,4.373,4.373,0,0,0,2.752-1.887,5.165,5.165,0,0,0-.048-3.655" transform="translate(-310.06 -438.374)" fill="none" stroke="#000" stroke-linecap="round" stroke-linejoin="round" stroke-miterlimit="10" stroke-width="2.3"/>
        <path id="路径_12007" data-name="路径 12007" d="M372.865,427.009a37.745,37.745,0,0,1,7.2-2.113,1.551,1.551,0,0,1,1.465.238,1.527,1.527,0,0,1,.273.973,33.259,33.259,0,0,1-.082,4.114" transform="translate(-338.11 -424.827)" fill="none" stroke="#000" stroke-linecap="round" stroke-linejoin="round" stroke-miterlimit="10" stroke-width="2.3"/>
        <path id="路径_12008" data-name="路径 12008" d="M373.84,440.9a65.531,65.531,0,0,0,8.021-2.987" transform="translate(-338.622 -431.686)" fill="none" stroke="#000" stroke-linecap="round" stroke-miterlimit="10" stroke-width="2.3"/>
        <path id="路径_12009" data-name="路径 12009" d="M368.207,429.7a48.147,48.147,0,0,1-3.161,22.732" transform="translate(-334.011 -427.381)" fill="none" stroke="#000" stroke-linecap="round" stroke-miterlimit="10" stroke-width="2.3"/>
        <path id="路径_12010" data-name="路径 12010" d="M376.5,454.333a55.48,55.48,0,0,1,.558,7.691" transform="translate(-340.016 -440.297)" fill="none" stroke="#000" stroke-linecap="round" stroke-miterlimit="10" stroke-width="2.3"/>
        <path id="路径_12011" data-name="路径 12011" d="M376.847,452.639a19.346,19.346,0,0,1,6.756-1.846,2.248,2.248,0,0,1,2.1.609,2.281,2.281,0,0,1,.259,1.4,37.5,37.5,0,0,1-.573,5.292" transform="translate(-340.198 -438.429)" fill="none" stroke="#000" stroke-linecap="round" stroke-linejoin="round" stroke-miterlimit="10" stroke-width="2.3"/>
        <path id="路径_12012" data-name="路径 12012" d="M386.047,445.33a171.38,171.38,0,0,1,.216,20.14" transform="translate(-345.022 -435.577)" fill="none" stroke="#000" stroke-linecap="round" stroke-miterlimit="10" stroke-width="2.3"/>
        <path id="路径_12013" data-name="路径 12013" d="M403.991,440.334q.253,4.553.082,9.117" transform="translate(-354.429 -432.957)" fill="none" stroke="#000" stroke-linecap="round" stroke-miterlimit="10" stroke-width="2.3"/>
        <path id="路径_12014" data-name="路径 12014" d="M411.271,424.992A173.187,173.187,0,0,1,411.4,452.9a12.549,12.549,0,0,1-3.9-1.426" transform="translate(-356.269 -424.914)" fill="none" stroke="#000" stroke-linecap="round" stroke-linejoin="round" stroke-miterlimit="10" stroke-width="2.3"/>
      </g>
    </g>
  </g>
</svg>
