<svg xmlns="http://www.w3.org/2000/svg" width="1921" height="1080" viewBox="0 0 1921 1080">
  <path id="排除_3" data-name="排除 3" d="M1921,1080H0V0H1921V1080ZM1250.033,583.312V635.2c0,10-.23,21.74-1.939,33.064a100.3,100.3,0,0,1-3.828,16.519,60.691,60.691,0,0,1-6.983,14.652c3.82,1.967,10.77,6.723,13.67,9.677a70.439,70.439,0,0,0,7.755-16.657,125.29,125.29,0,0,0,4.5-19.195,242.594,242.594,0,0,0,2.6-38.06V620.759h25.631L1280,624.4c.433.924.9,1.9,1.391,2.925l.012.025c1.3,2.711,2.641,5.514,3.592,7.85H1269.75V648.95h16.956v14.586h-19.979V677.56h17.481a28.4,28.4,0,0,1-6.556,9.923,43.273,43.273,0,0,1-12.766,8.45,54.26,54.26,0,0,1,10.384,12.622,55.353,55.353,0,0,0,10.542-6.48,39.669,39.669,0,0,0,14.694-24.516h20.9v30.715h15.772V677.56h22.213l.132-14.025h-22.345V648.95h18.533V635.2h-18.139l.84-1.264.009-.014c1.974-2.967,4.015-6.036,5.854-9.1l-14.984-4.067h24.974V583.312ZM1135.126,701.123h75.841v7.152h15.9v-94.67h-49.947c.6-2.3,1.256-4.586,1.956-7l.017-.059c.523-1.809,1.064-3.68,1.575-5.559h52.445V585.275h-118.3v15.709H1162.6c-.555,4.443-1.416,9.079-2.1,12.622H1120.01v94.67h15.116v-7.151Zm-145.48-11.08V705.05H1101.37V690.044h-48.107V673.213h31.283V658.626h-31.283V642.5H1085.6v-8.976c3.9,2.361,8.271,4.9,12.492,7.36l.026.015.1.058c2.029-5.05,6.762-10.7,10.516-14.305a182.043,182.043,0,0,1-29.426-16.988,148.582,148.582,0,0,1-25.384-22.983l1.183-1.894,1.183-1.894-13.932-6.872a102.3,102.3,0,0,1-11.7,15.579,132.075,132.075,0,0,1-14.7,13.856,153.162,153.162,0,0,1-34.191,20.915c3.5,3.487,8.389,9.217,10.647,13.885,4.311-2.231,8.557-4.637,12.618-7.153v9.4h31.809v16.129h-29.968v14.586h29.968v16.831ZM672.857,585.415c-15.192,0-27.909,5.56-36.776,16.08a53.227,53.227,0,0,0-9.86,18.336,83.516,83.516,0,0,0,0,47.266,53.222,53.222,0,0,0,9.86,18.336c8.867,10.519,21.584,16.079,36.776,16.079s27.873-5.56,36.7-16.079c8.636-10.289,13.2-24.8,13.2-41.969s-4.565-31.68-13.2-41.969C700.731,590.975,688.039,585.415,672.857,585.415Zm206.962,2.322V699.191h33.222a104.634,104.634,0,0,0,12.766-.619,39.864,39.864,0,0,0,16.533-6.064,41.974,41.974,0,0,0,12.045-12.144,56.792,56.792,0,0,0,7.367-16.817,82.068,82.068,0,0,0,0-40.187,56.967,56.967,0,0,0-7.367-16.854c-6.82-10.326-16.7-16.6-28.579-18.15a104.632,104.632,0,0,0-12.766-.619Zm-77.594,0V699.191h67.459V681.7h-50.05V650.12H860.98V632.783H819.635V605.229h50.05V587.737Zm-70.78,0V699.191h63.541V681.7H748.855V587.737Zm443.277-71.094c2.588,4.832,6.038,13.284,7.1,18.513,1.082.011,2.159.017,3.2.017,13.651,0,22.229-1.043,27.819-3.383a12.293,12.293,0,0,0,6.7-6.259c1.345-2.888,1.971-6.915,1.971-12.675V448.62h29.837V431.93h-29.837V404.02h-16.824v27.91h-72.424v16.69h72.424v64.095a3.633,3.633,0,0,1-4.338,4.348c-.434,0-1,0-1.765.005h-.042c-1.072,0-2.407.01-3.944.01C1186.934,517.078,1180.431,516.936,1174.723,516.642Zm-111.607-12.2h0a63.059,63.059,0,0,0,20.75,20.09c8.435,5.033,18.544,8.508,30.905,10.624a66.331,66.331,0,0,1,9.726-15.428,117.067,117.067,0,0,1-16-2.82,78.948,78.948,0,0,1-13.51-4.7,57.155,57.155,0,0,1-11.045-6.62,47.825,47.825,0,0,1-8.6-8.58h45.741V481.439h-11.7V449.321h-39.432V435.3h-16.431v14.026H1015.8v32.117H1003.18v15.568h45.215a32.316,32.316,0,0,1-6.167,7.179,49.5,49.5,0,0,1-9.655,6.5,87.844,87.844,0,0,1-13.77,5.654,160.465,160.465,0,0,1-18.515,4.655,68.07,68.07,0,0,1,9.726,14.165,154.564,154.564,0,0,0,19.739-5.864,92.746,92.746,0,0,0,15.044-7.179,59.9,59.9,0,0,0,10.928-8.336,45.9,45.9,0,0,0,7.39-9.334ZM945.145,411.13a40.757,40.757,0,0,0-15.631,2.936,33.78,33.78,0,0,0-12.041,8.364,37.476,37.476,0,0,0-7.743,13.124,51.966,51.966,0,0,0-2.738,17.216v33.9a47.387,47.387,0,0,0,2.768,16.3,38.591,38.591,0,0,0,7.623,12.778,34.3,34.3,0,0,0,25.732,11.319,34.947,34.947,0,0,0,13.968-2.893,35.926,35.926,0,0,0,11.492-7.943,37.128,37.128,0,0,0,7.793-11.89,38.629,38.629,0,0,0,2.87-14.735c0-21.168-14.093-36.532-33.511-36.532a29.523,29.523,0,0,0-11.207,2.225,30.76,30.76,0,0,0-9.684,6.289V450.139a22.9,22.9,0,0,1,1.46-8.064,21.735,21.735,0,0,1,4.126-6.874,19.4,19.4,0,0,1,14.725-6.579,18.428,18.428,0,0,1,8.178,1.974,20.728,20.728,0,0,1,6.764,5.457l12.622-13.158a35.679,35.679,0,0,0-12.585-8.9A38.725,38.725,0,0,0,945.145,411.13Zm-64.3,94.581v19.04h17.844v-19.04Zm-111.5-72.135v91.175h17.843V413.3H769.341l-19.585,12.539v20.587l19.584-12.846Zm66.193-4.954a17.576,17.576,0,0,1,7.15,1.456,16.168,16.168,0,0,1,5.544,4.039,18.3,18.3,0,0,1,3.586,6.129,23.028,23.028,0,0,1,1.274,7.725c0,6.231-2.95,11.888-9.284,17.8l-44.682,42.569V524.6h71.956V506.949H826.25l26.693-25.231c6-5.623,10.485-9.99,13.528-15,3.186-5.241,4.606-10.976,4.606-18.6a41.485,41.485,0,0,0-2.673-14.947,35.113,35.113,0,0,0-7.392-11.755,33.2,33.2,0,0,0-11.173-7.691,35.9,35.9,0,0,0-14.016-2.757,40.838,40.838,0,0,0-14.77,2.622,32.811,32.811,0,0,0-19.094,19.06,41.661,41.661,0,0,0-2.693,15.16h17.988a19.23,19.23,0,0,1,1.29-7.537,18.492,18.492,0,0,1,3.991-6.24A17.946,17.946,0,0,1,835.534,428.622Zm322.891,29.815h0l-13.407,8.415a190.607,190.607,0,0,1,13.029,17.619,97.455,97.455,0,0,1,9.184,16.883l14.59-9.537c-4.418-10.311-15.365-24.426-23.4-33.38Zm-112.79-28.751H1078.1v12.482h15.642V429.686h25.893V414.679h-25.893V404.02H1078.1v10.659h-32.465V404.02h-15.51v10.659h-25.63v15.008h25.63v12.482h15.51V429.687Zm165.332,256.15h-14.2v-56.8h14.2Zm-28.26,0H1162.6V675.457h20.11v10.378Zm-34.175,0h-13.406v-56.8h13.406ZM673.44,683.87c-.192,0-.383,0-.583,0a32.235,32.235,0,0,1-13.814-2.961,26.619,26.619,0,0,1-9.869-8.185,36.87,36.87,0,0,1-5.9-12.713,63.494,63.494,0,0,1-1.9-16.544,65.894,65.894,0,0,1,1.924-16.535,37.747,37.747,0,0,1,5.782-12.754,26.079,26.079,0,0,1,9.652-8.211,30.488,30.488,0,0,1,13.535-2.906c.2,0,.388,0,.588,0A32.293,32.293,0,0,1,686.65,606a26.423,26.423,0,0,1,9.835,8.148,37,37,0,0,1,5.891,12.706,71.378,71.378,0,0,1,.036,33.08,37.928,37.928,0,0,1-5.783,12.76,26.2,26.2,0,0,1-9.653,8.247A30.335,30.335,0,0,1,673.44,683.87Zm239.6-2.326H897.664v-76.16h15.377c2.839,0,8.124,0,11.605.774a21.145,21.145,0,0,1,9.43,4.523,27.157,27.157,0,0,1,6.6,8.441,43.67,43.67,0,0,1,3.88,11.285,67.394,67.394,0,0,1,.041,25.829,44.27,44.27,0,0,1-3.813,11.278,27.543,27.543,0,0,1-6.587,8.579,21.352,21.352,0,0,1-9.552,4.675C921.165,681.544,916.08,681.544,913.041,681.544Zm408.365-18.008h-19.585V648.95h19.585v14.585Zm-138.7-1.122H1162.6v-10.66h20.11v10.659Zm0-23.7H1162.6v-9.678h20.11v9.677ZM1321.8,635.2h-31.809l10.647-3.787a99.036,99.036,0,0,0-5.652-10.659h32.6A139.38,139.38,0,0,1,1321.8,635.2Zm-244.615-7.434h-64.142A169.912,169.912,0,0,0,1029.8,614.29a177.164,177.164,0,0,0,15.182-15.69,177.585,177.585,0,0,0,32.2,29.17Zm260.256-21.178h-71.635v-9.257h71.635v9.256ZM943.114,509.271a16.949,16.949,0,0,1-7.14-1.57,18.285,18.285,0,0,1-5.807-4.255,19.936,19.936,0,0,1-3.9-6.257,20.646,20.646,0,0,1-1.428-7.578c0-10.84,8.265-19.659,18.424-19.659a17.533,17.533,0,0,1,12.948,5.766,19.719,19.719,0,0,1,3.9,6.25,20.883,20.883,0,0,1,1.428,7.643C961.537,500.452,953.273,509.271,943.114,509.271Zm150.366-27.832H1069.82c.131-1.543.131-3.256.131-4.768v-12.9h23.528v17.67Zm-40.221,0h-22.345V463.767h22.608V476.39a32.746,32.746,0,0,1-.262,5.048Z"/>
</svg>
